<?xml version="1.0" encoding="utf-8"?>
<!-- Generator: Adobe Illustrator 25.0.0, SVG Export Plug-In . SVG Version: 6.00 Build 0)  -->
<svg version="1.1" id="Capa_1" xmlns="http://www.w3.org/2000/svg" xmlns:xlink="http://www.w3.org/1999/xlink" x="0px" y="0px"
	 viewBox="0 0 400 184.41" style="enable-background:new 0 0 400 184.41;" xml:space="preserve">
<style type="text/css">
	.st0{fill:#FFFFFF;stroke:#000000;stroke-width:13;stroke-miterlimit:10;}
	.st1{fill:#FFFFFF;}
	.st2{fill:#8B8B8B;}
	.st3{fill:#A2A2A2;}
	.st4{fill:#A1A1A1;}
	.st5{fill:#F9F9F9;}
	.st6{fill:#F4F4F4;}
	.st7{fill:#F8F8F8;}
	.st8{fill:#4D4D4D;}
	.st9{fill:#F0F0F0;}
	.st10{fill:#EFEFEF;}
	.st11{fill:#EEEEEE;}
	.st12{fill:#F1F1F1;}
	.st13{fill:#ECECEC;}
	.st14{fill:#E9E9E9;}
	.st15{fill:#E3E3E3;}
	.st16{fill:#F5F5F5;}
	.st17{fill:#B8B8B8;}
	.st18{fill:#E5E5E5;}
	.st19{fill:#D0D0D0;}
	.st20{fill:#E8E8E8;}
	.st21{fill:#EDEDED;}
	.st22{fill:#E7E7E7;}
	.st23{fill:#EAEAEA;}
	.st24{fill:#EBEBEB;}
	.st25{fill:#E4E4E4;}
	.st26{fill:#DFDFDF;}
	.st27{fill:#D6D6D6;}
	.st28{fill:#E0E0E0;}
	.st29{fill:#C3C3C3;}
	.st30{fill:#DDDDDD;}
	.st31{fill:#4E4E4E;}
	.st32{fill:#C5C5C5;}
	.st33{fill:#515151;}
	.st34{fill:#505050;}
	.st35{fill:#FFFFFF;stroke:#000000;stroke-width:13;stroke-linejoin:round;stroke-miterlimit:10;}
	.st36{fill:#71A449;}
	.st37{fill:#204921;}
	.st38{display:none;stroke:#FFFFFF;stroke-width:4;stroke-linejoin:round;stroke-miterlimit:10;}
	.st39{display:none;}
	.st40{display:inline;}
	.st41{stroke:#FFFFFF;stroke-width:4;stroke-linejoin:round;stroke-miterlimit:10;}
	.st42{fill:none;stroke:#000000;stroke-width:10;stroke-linecap:round;stroke-miterlimit:10;}
	.st43{fill:none;}
	.st44{enable-background:new    ;}
</style>
<g>
	<path class="st43" d="M179.69,118.04c0-5.59-3.57-9.43-9.43-9.43h-12.37v19.24h12.37C176.12,127.85,179.69,123.54,179.69,118.04z"
		/>
	<path class="st43" d="M170.35,136.09H157.8v19.6h13.92c5.59,0,9.89-4.31,9.89-9.98C181.61,140.12,176.3,136.09,170.35,136.09z"/>
	<path class="st43" d="M353.44,50.81c0.31-1.65,0.53-3.25,0.67-4.78c0.14-1.53,0.21-3.12,0.21-4.74c0-1.09-0.12-1.84-0.37-2.27
		c-0.25-0.42-0.54-0.64-0.87-0.64c-0.57,0-1.03,0.55-1.38,1.65c-0.35,1.1-0.63,2.58-0.83,4.44c-0.2,1.87-0.34,4.02-0.42,6.48
		c-0.08,2.46-0.12,5.04-0.12,7.76v3.9c0.73-2.38,1.36-4.53,1.88-6.44C352.72,54.25,353.13,52.46,353.44,50.81z"/>
	<path class="st43" d="M390.19,51.7c0.38-2.05,0.67-4,0.88-5.83s0.32-3.43,0.32-4.8c0-0.5-0.06-0.89-0.18-1.17
		c-0.12-0.28-0.31-0.42-0.57-0.42c-0.26,0-0.52,0.37-0.78,1.1c-0.26,0.73-0.51,1.72-0.76,2.97c-0.25,1.25-0.47,2.7-0.67,4.36
		c-0.2,1.65-0.38,3.41-0.55,5.26c-0.17,1.85-0.3,3.75-0.39,5.68c-0.09,1.94-0.15,3.8-0.18,5.59c0.57-2.08,1.09-4.21,1.58-6.39
		C389.38,55.87,389.82,53.75,390.19,51.7z"/>
	<polygon class="st43" points="221.46,117.22 221,117.22 209.83,142.32 232.73,142.32 	"/>
	<g>
		<path d="M339.02,31.83c-0.71-1.36-1.64-2.57-2.79-3.63c-1.15-1.07-2.45-2.04-3.9-2.91c-1.45-0.87-2.92-1.68-4.38-2.42
			c-1.47-0.74-2.88-1.46-4.24-2.16c-1.36-0.69-2.52-1.41-3.49-2.16c0.1-0.32,0.22-0.71,0.36-1.16c0.14-0.45,0.29-0.95,0.44-1.48
			c0.15-0.53,0.27-1.07,0.36-1.6c0.1-0.53,0.15-1.04,0.15-1.53c0-1.03-0.31-1.9-0.92-2.59c-0.61-0.69-1.53-1.04-2.76-1.04
			c-0.68,0-1.32,0.15-1.94,0.44c-0.61,0.29-1.16,0.69-1.62,1.19c-0.47,0.5-0.84,1.1-1.12,1.79c-0.27,0.7-0.41,1.43-0.41,2.21
			c0,1.42,0.28,2.64,0.85,3.66c0.56,1.02,1.44,2.09,2.64,3.22l-4.94,10.81c-1.65,3.3-3.09,5.95-4.34,7.97
			c-1.24,2.02-2.32,3.57-3.22,4.65c-0.91,1.08-1.67,1.81-2.3,2.18c-0.63,0.37-1.15,0.56-1.57,0.56c-1,0-1.7-0.31-2.08-0.92
			c-0.39-0.61-0.58-1.79-0.58-3.54c0-1.39,0.15-2.97,0.46-4.75s0.69-3.61,1.14-5.5c0.45-1.89,0.95-3.76,1.48-5.62
			c0.53-1.86,1.03-3.58,1.48-5.16c0.45-1.58,0.83-2.97,1.14-4.17c0.31-1.19,0.46-2.05,0.46-2.57c0-0.71-0.23-1.22-0.68-1.53
			c-0.45-0.31-1.05-0.46-1.79-0.46c-0.87,0-1.83,0.13-2.86,0.39c-1.03,0.26-2.08,0.54-3.15,0.85c-1.07,0.31-2.12,0.59-3.17,0.85
			c-1.05,0.26-2.03,0.39-2.93,0.39c0-0.74-0.1-1.46-0.29-2.16c-0.19-0.69-0.48-1.31-0.87-1.84c-0.39-0.53-0.87-0.96-1.45-1.28
			c-0.58-0.32-1.26-0.48-2.04-0.48c-0.58,0-1.14,0.11-1.67,0.31c-0.53,0.21-1.02,0.51-1.45,0.9c-0.44,0.39-0.78,0.87-1.04,1.45
			c-0.26,0.58-0.39,1.24-0.39,1.99c0,0.94,0.17,1.78,0.51,2.52c0.34,0.74,0.8,1.39,1.38,1.94c0.58,0.55,1.26,0.99,2.04,1.31
			c0.78,0.32,1.58,0.53,2.42,0.63c-0.06,0.39-0.18,0.94-0.34,1.67c-0.16,0.73-0.39,1.55-0.68,2.47c-0.29,0.92-0.64,1.9-1.04,2.93
			c-0.4,1.03-0.85,2.04-1.33,3l-1.45,3c-1.23,2.45-2.32,4.53-3.27,6.23s-1.8,3.08-2.54,4.14c-0.74,1.07-1.4,1.83-1.96,2.3
			c-0.57,0.47-1.09,0.7-1.58,0.7c-0.81,0-1.37-0.63-1.7-1.89c-0.32-1.26-0.48-2.81-0.48-4.65c0-3.68,0.14-7.06,0.41-10.13
			c0.27-3.07,0.57-5.74,0.87-8.02c0.31-2.28,0.6-4.15,0.87-5.62c0.27-1.47,0.41-2.45,0.41-2.93c0-0.39-0.06-0.65-0.19-0.78
			c-0.13-0.13-0.39-0.19-0.78-0.19c-0.26,0-0.69,0.06-1.31,0.17c-0.61,0.11-1.24,0.29-1.89,0.53c-0.65,0.24-1.23,0.57-1.77,0.99
			c-0.53,0.42-0.83,0.94-0.9,1.55l-0.58,4.7c-0.19-0.65-0.57-1.43-1.12-2.35c-0.55-0.92-1.23-1.79-2.06-2.62
			c-0.82-0.82-1.78-1.53-2.88-2.11c-1.1-0.58-2.29-0.87-3.59-0.87c-2.13,0-4.17,0.56-6.11,1.67s-3.65,2.68-5.14,4.7
			c-1.49,2.02-2.67,4.43-3.54,7.22c-0.62,2-1.01,4.14-1.19,6.43c-1.14,2.18-2.41,4.32-3.82,6.41c-1.66,2.47-3.32,4.77-4.97,6.91
			V15.59c0-0.74-0.07-1.26-0.22-1.55c-0.15-0.29-0.57-0.44-1.28-0.44c-0.16,0-0.48,0.03-0.97,0.1s-0.99,0.18-1.53,0.34
			c-0.53,0.16-1.03,0.36-1.5,0.61c-0.47,0.24-0.8,0.56-0.99,0.95c-0.23,0.48-0.35,1.28-0.36,2.37c-0.02,1.1-0.08,2.37-0.19,3.83
			c-0.11,1.45-0.34,3.01-0.68,4.68c-0.34,1.66-0.91,3.32-1.72,4.97l-0.48,1.02c-1.65,3.3-3.07,5.98-4.26,8.07
			c-1.2,2.08-2.22,3.72-3.08,4.92c-0.86,1.19-1.57,2.01-2.13,2.45c-0.57,0.44-1.06,0.65-1.48,0.65c-1.33,0-1.99-1.07-1.99-3.2
			c0-1.65,0.1-3.46,0.32-5.45c0.21-1.99,0.45-4.02,0.73-6.11s0.52-4.13,0.73-6.15c0.21-2.02,0.32-3.85,0.32-5.5
			c0-2.62-0.57-4.69-1.7-6.23c-1.13-1.53-2.91-2.3-5.33-2.3c-1.36,0-2.69,0.32-4,0.97c-1.31,0.65-2.58,1.5-3.8,2.57
			c-1.23,1.07-2.41,2.29-3.54,3.68c-1.13,1.39-2.18,2.84-3.15,4.36c0.1-3.13,0.22-5.54,0.36-7.22s0.22-2.47,0.22-2.37
			c0-0.74-0.11-1.26-0.32-1.55c-0.21-0.29-0.59-0.44-1.14-0.44c-0.29,0-0.7,0.02-1.21,0.05c-0.52,0.03-1.05,0.12-1.6,0.27
			c-0.55,0.15-1.07,0.35-1.55,0.61c-0.48,0.26-0.82,0.61-1.02,1.07c-0.1,0.19-0.15,0.48-0.17,0.85c-0.02,0.37-0.02,0.88-0.02,1.53
			v13.67l-0.39,0.81c-1.36,2.71-2.68,5.05-3.97,7c-1.29,1.96-2.54,3.55-3.75,4.77c-1.21,1.23-2.41,2.13-3.59,2.71
			c-1.18,0.58-2.33,0.87-3.46,0.87c-1.36,0-2.59-0.27-3.68-0.8c-1.1-0.53-2.07-1.29-2.91-2.28c-0.84-0.98-1.53-2.16-2.08-3.54
			c-0.55-1.37-0.94-2.9-1.16-4.58c2.33-1.42,4.54-2.8,6.64-4.14c2.1-1.34,3.95-2.7,5.55-4.07c1.6-1.37,2.87-2.78,3.8-4.22
			c0.94-1.44,1.41-2.98,1.41-4.63c0-1.71-0.59-3.13-1.77-4.26c-1.18-1.13-2.88-1.7-5.11-1.7c-2.2,0-4.31,0.57-6.35,1.7
			c-2.04,1.13-3.85,2.71-5.45,4.75s-2.88,4.48-3.83,7.34c-0.83,2.49-1.3,5.22-1.4,8.19c-0.75,1.48-1.45,2.85-2.08,4.05
			c-1.05,2-1.97,3.66-2.76,4.97c-0.79,1.31-1.49,2.28-2.11,2.91c-0.61,0.63-1.18,0.95-1.7,0.95c-1,0-1.5-1-1.5-3
			c0-1.65,0.13-3.47,0.39-5.48s0.53-4.05,0.82-6.13c0.29-2.08,0.56-4.14,0.82-6.18c0.26-2.04,0.39-3.88,0.39-5.52
			c0-2.62-0.57-4.69-1.7-6.23c-1.13-1.53-2.92-2.3-5.38-2.3c-1.42,0-2.79,0.31-4.09,0.92c-1.31,0.61-2.55,1.45-3.73,2.52
			c-1.18,1.07-2.29,2.32-3.34,3.75c-1.05,1.44-2.03,2.98-2.93,4.63c-0.1-1.68-0.28-3.24-0.56-4.68c-0.27-1.44-0.69-2.69-1.26-3.75
			s-1.33-1.9-2.28-2.5c-0.95-0.6-2.16-0.9-3.61-0.9c-1.19,0-2.35,0.29-3.46,0.87s-2.17,1.36-3.17,2.35c-1,0.99-1.91,2.13-2.74,3.44
			c-0.82,1.31-1.54,2.69-2.16,4.14c0.06-1.36,0.1-2.71,0.1-4.07c0-1.36,0-2.88,0-4.55c0-0.74-0.1-1.29-0.29-1.65
			c-0.19-0.36-0.6-0.53-1.21-0.53c-0.26,0-0.63,0.02-1.12,0.05c-0.48,0.03-0.97,0.12-1.45,0.27c-0.48,0.15-0.94,0.35-1.38,0.61
			c-0.44,0.26-0.74,0.61-0.9,1.07c-0.1,0.29-0.17,0.8-0.22,1.53c-0.05,0.73-0.07,1.87-0.07,3.42c0,0.94,0.01,2.05,0.02,3.34
			c0.02,1.29,0.02,2.79,0.02,4.51s0.01,3.67,0.02,5.86c0.02,2.2,0.02,4.67,0.02,7.41c-0.16,0.78-0.33,1.61-0.51,2.5
			c-0.18,0.89-0.34,1.75-0.48,2.59c-0.15,0.84-0.27,1.62-0.36,2.35c-0.1,0.73-0.15,1.33-0.15,1.82c0,1,0.21,1.65,0.63,1.94
			c0.42,0.29,0.87,0.44,1.36,0.44c0.39,0,0.89-0.06,1.5-0.19c0.61-0.13,1.21-0.33,1.79-0.61c0.58-0.27,1.09-0.63,1.53-1.07
			s0.65-0.98,0.65-1.62c0-3.78,0.04-7.27,0.12-10.47c0.08-3.2,0.17-6.22,0.27-9.06v-0.58c0.71-1.74,1.43-3.38,2.16-4.92
			c0.73-1.53,1.48-2.87,2.25-4.02c0.78-1.15,1.59-2.05,2.45-2.71c0.86-0.66,1.75-0.99,2.69-0.99c0.78,0,1.4,0.27,1.89,0.8
			c0.48,0.53,0.86,1.28,1.14,2.25c0.27,0.97,0.46,2.13,0.56,3.49c0.1,1.36,0.14,2.86,0.14,4.51c0,0.78-0.01,1.7-0.02,2.79
			c-0.02,1.08-0.04,2.21-0.07,3.39c-0.03,1.18-0.06,2.37-0.1,3.56c-0.03,1.19-0.06,2.28-0.1,3.25c-0.16,1.03-0.32,2.05-0.48,3.05
			s-0.31,1.94-0.44,2.81c-0.13,0.87-0.24,1.66-0.32,2.37c-0.08,0.71-0.12,1.28-0.12,1.7c0,0.9,0.19,1.51,0.56,1.82
			c0.37,0.31,0.82,0.46,1.33,0.46c0.23,0,0.56-0.03,0.99-0.1s0.89-0.16,1.36-0.29c0.47-0.13,0.9-0.29,1.28-0.48s0.66-0.4,0.82-0.63
			c0.23-0.36,0.44-1.04,0.63-2.06s0.35-2.4,0.46-4.14c0.11-1.74,0.2-3.88,0.27-6.42c0.06-2.54,0.1-5.5,0.1-8.89
			c0.68-1.55,1.48-3.12,2.4-4.7c0.92-1.58,1.91-3.01,2.96-4.29c1.05-1.28,2.13-2.32,3.25-3.13c1.11-0.81,2.19-1.21,3.22-1.21
			c1.03,0,1.81,0.36,2.33,1.09c0.52,0.73,0.78,1.69,0.78,2.88c0,1.36-0.13,3.11-0.39,5.26c-0.26,2.15-0.55,4.43-0.87,6.86
			c-0.32,2.42-0.61,4.85-0.87,7.27c-0.26,2.42-0.39,4.6-0.39,6.54c0,1.29,0.14,2.35,0.44,3.17c0.29,0.82,0.68,1.48,1.16,1.96
			c0.48,0.48,1.05,0.82,1.7,1.02c0.65,0.19,1.31,0.29,1.99,0.29c1.16,0,2.22-0.29,3.17-0.87c0.95-0.58,1.96-1.61,3.03-3.08
			c1.07-1.47,2.27-3.45,3.61-5.94c0.48-0.9,1.01-1.89,1.57-2.96c0.15,0.93,0.35,1.85,0.62,2.74c0.6,1.99,1.46,3.73,2.59,5.23
			c1.13,1.5,2.52,2.69,4.17,3.56s3.52,1.31,5.62,1.31c1.48,0,3.04-0.36,4.65-1.07c1.61-0.71,3.25-1.84,4.92-3.39
			c1.66-1.55,3.36-3.55,5.09-6.01c1.2-1.7,2.4-3.65,3.61-5.84v4.68c-0.16,0.78-0.33,1.61-0.51,2.5c-0.18,0.89-0.34,1.75-0.48,2.59
			s-0.27,1.62-0.36,2.35c-0.1,0.73-0.14,1.33-0.14,1.82c0,1,0.21,1.65,0.63,1.94c0.42,0.29,0.87,0.44,1.36,0.44
			c0.39,0,0.89-0.06,1.5-0.19c0.61-0.13,1.21-0.32,1.79-0.56c0.58-0.24,1.09-0.55,1.53-0.92c0.44-0.37,0.65-0.8,0.65-1.28
			c0-3.81,0.04-7.4,0.12-10.76c0.08-3.36,0.17-6.46,0.27-9.3c0.78-1.55,1.69-3.12,2.74-4.7c1.05-1.58,2.14-3.01,3.27-4.29
			c1.13-1.28,2.25-2.32,3.37-3.13c1.11-0.81,2.12-1.21,3.03-1.21c1.03,0,1.81,0.36,2.33,1.09c0.52,0.73,0.78,1.69,0.78,2.88
			c0,1.36-0.13,3.11-0.39,5.26c-0.26,2.15-0.55,4.43-0.87,6.86c-0.32,2.42-0.61,4.85-0.87,7.27c-0.26,2.42-0.39,4.6-0.39,6.54
			c0,1.29,0.16,2.35,0.48,3.17c0.32,0.82,0.74,1.48,1.26,1.96c0.52,0.48,1.11,0.82,1.79,1.02c0.68,0.19,1.36,0.29,2.04,0.29
			c1.07,0,2.13-0.28,3.2-0.85c1.07-0.56,2.21-1.57,3.44-3.03c1.23-1.45,2.59-3.42,4.09-5.91s3.22-5.67,5.16-9.55l0.97-1.99h0.48
			V52.9c-1.45,1.78-2.81,3.48-4.07,5.11c-1.26,1.63-2.37,3.22-3.32,4.77s-1.7,3.05-2.23,4.51c-0.53,1.45-0.8,2.91-0.8,4.36
			c0,1,0.16,1.9,0.48,2.69c0.32,0.79,0.78,1.47,1.36,2.04s1.27,0.99,2.06,1.28c0.79,0.29,1.66,0.44,2.59,0.44
			c1.48,0,2.86-0.29,4.12-0.87c1.26-0.58,2.36-1.53,3.3-2.84c0.94-1.31,1.67-3,2.21-5.09c0.53-2.08,0.8-4.61,0.8-7.58V50.92
			c1-1.32,2.04-2.71,3.13-4.17c1.08-1.45,2.12-2.91,3.13-4.39c0.88-1.29,1.7-2.55,2.49-3.8c0.14,2,0.47,3.78,0.99,5.36
			c0.71,2.12,1.65,3.87,2.84,5.26c1.18,1.39,2.53,2.42,4.04,3.1s3.08,1.02,4.7,1.02c1.1,0,2.2-0.29,3.3-0.87
			c1.1-0.58,2.16-1.37,3.17-2.37c1.02-1,1.99-2.17,2.93-3.51c0.94-1.34,1.79-2.79,2.57-4.34c0.1,1.52,0.27,2.95,0.53,4.29
			c0.26,1.34,0.63,2.52,1.11,3.54s1.09,1.82,1.82,2.4c0.73,0.58,1.62,0.87,2.69,0.87c1,0,2.01-0.4,3.03-1.19
			c1.02-0.79,2.06-1.93,3.13-3.42c1.07-1.49,2.19-3.3,3.37-5.45c1.18-2.15,2.45-4.58,3.8-7.29l0.96-1.99l0.01,0l0.48-1.02
			c0.48-1,0.95-2.07,1.41-3.2c0.45-1.13,0.86-2.23,1.21-3.3c0.35-1.07,0.64-2.04,0.85-2.91s0.35-1.53,0.41-1.99
			c1.26-0.13,2.5-0.5,3.73-1.11c1.23-0.61,2.38-1.27,3.46-1.96c1.08-0.69,2.06-1.32,2.93-1.87c0.87-0.55,1.57-0.82,2.08-0.82
			l0.29,0.29c-0.26,1-0.69,2.16-1.31,3.49c-0.61,1.32-1.3,2.75-2.06,4.29c-0.76,1.53-1.56,3.16-2.4,4.87
			c-0.84,1.71-1.6,3.45-2.28,5.21c-0.68,1.76-1.24,3.53-1.7,5.31c-0.45,1.78-0.68,3.49-0.68,5.14c0,3.04,0.6,5.28,1.79,6.74
			c1.2,1.45,2.75,2.18,4.65,2.18c1.13,0,2.26-0.28,3.39-0.85c1.13-0.56,2.33-1.57,3.61-3.03c1.28-1.45,2.67-3.42,4.19-5.91
			c1.52-2.49,3.25-5.67,5.18-9.55l0.48-1.02l-0.02-0.01l4.38-9.72c0.84,0.81,1.82,1.62,2.96,2.42c1.13,0.81,2.28,1.64,3.46,2.5
			c1.18,0.86,2.34,1.75,3.49,2.69c1.15,0.94,2.17,1.94,3.08,3c0.9,1.07,1.63,2.2,2.18,3.39c0.55,1.19,0.82,2.49,0.82,3.88
			c0,1.45-0.2,2.79-0.61,4.02c-0.4,1.23-0.99,2.29-1.74,3.17c-0.76,0.89-1.67,1.58-2.74,2.08c-1.07,0.5-2.25,0.75-3.54,0.75
			c-2.55,0-4.56-0.64-6.03-1.91c-1.47-1.28-2.2-2.98-2.2-5.11c0-1.16,0.23-2.25,0.68-3.27c0.45-1.02,1.06-1.89,1.82-2.62
			c0.76-0.73,1.63-1.3,2.62-1.72c0.99-0.42,1.99-0.63,3.03-0.63v-1.41c-0.84-0.19-1.65-0.29-2.42-0.29c-1.23,0-2.39,0.23-3.49,0.68
			c-1.1,0.45-2.08,1.07-2.93,1.87c-0.86,0.79-1.53,1.74-2.04,2.86c-0.5,1.11-0.75,2.32-0.75,3.61s0.26,2.54,0.78,3.75
			c0.52,1.21,1.26,2.29,2.23,3.25c0.97,0.95,2.14,1.71,3.51,2.28c1.37,0.57,2.93,0.85,4.68,0.85c2.42,0,4.58-0.47,6.47-1.41
			c1.89-0.94,3.47-2.19,4.75-3.76c1.28-1.57,2.24-3.36,2.91-5.38c0.66-2.02,0.99-4.13,0.99-6.32
			C340.09,34.72,339.73,33.18,339.02,31.83z M156.34,33.04c0-2.91,0.26-5.38,0.78-7.41c0.52-2.04,1.16-3.71,1.94-5.02
			s1.63-2.26,2.57-2.86c0.94-0.6,1.82-0.9,2.66-0.9c1,0,1.85,0.37,2.54,1.11c0.69,0.74,1.04,1.76,1.04,3.05
			c0,1.32-0.4,2.64-1.19,3.95c-0.79,1.31-1.77,2.54-2.93,3.71c-1.16,1.16-2.42,2.22-3.76,3.17c-1.34,0.95-2.56,1.72-3.66,2.3V33.04z
			 M223.79,64.19c0,2.49-0.14,4.46-0.41,5.91c-0.27,1.45-0.62,2.55-1.04,3.3c-0.42,0.74-0.9,1.22-1.43,1.43
			c-0.53,0.21-1.06,0.32-1.58,0.32c-1,0-1.78-0.38-2.33-1.14c-0.55-0.76-0.82-1.64-0.82-2.64c0-1.07,0.19-2.16,0.58-3.29
			c0.39-1.13,0.92-2.3,1.6-3.51c0.68-1.21,1.48-2.45,2.4-3.73c0.92-1.28,1.93-2.59,3.03-3.95V64.19z M263.26,36.57
			c-0.63,2.39-1.44,4.42-2.42,6.08c-0.99,1.66-2.07,2.94-3.25,3.83c-1.18,0.89-2.32,1.33-3.42,1.33c-2.52,0-4.54-1.27-6.06-3.8
			c-1.52-2.54-2.28-6.23-2.28-11.07c0-2.42,0.26-4.64,0.78-6.66c0.52-2.02,1.22-3.75,2.11-5.18c0.89-1.44,1.94-2.55,3.15-3.34
			c1.21-0.79,2.51-1.19,3.9-1.19c1.13,0,2.21,0.34,3.22,1.02c1.02,0.68,1.91,1.57,2.69,2.69c0.78,1.11,1.39,2.39,1.84,3.83
			c0.45,1.44,0.68,2.9,0.68,4.39C264.21,31.49,263.89,34.18,263.26,36.57z M285.31,16.05c-0.31-0.08-0.61-0.21-0.9-0.39
			c-0.29-0.18-0.53-0.4-0.73-0.68c-0.19-0.27-0.29-0.61-0.29-0.99c0-0.26,0.1-0.48,0.29-0.68c0.19-0.19,0.44-0.29,0.73-0.29
			c0.55,0,0.97,0.3,1.26,0.9c0.29,0.6,0.44,1.35,0.44,2.25C285.88,16.17,285.62,16.13,285.31,16.05z M319.18,15.06
			c-0.18,0.65-0.43,1.31-0.75,1.99c-0.74-0.68-1.26-1.37-1.55-2.08c-0.29-0.71-0.44-1.36-0.44-1.94c0-0.52,0.14-0.93,0.41-1.24
			c0.27-0.31,0.64-0.46,1.09-0.46c0.45,0,0.82,0.17,1.09,0.51c0.27,0.34,0.41,0.77,0.41,1.28
			C319.45,13.77,319.36,14.41,319.18,15.06z"/>
	</g>
	<g>
		<path d="M398.27,73.19l-0.35,0.74c-0.76,1.51-1.49,2.92-2.2,4.21c-0.71,1.3-1.38,2.43-2.02,3.4c-0.64,0.97-1.23,1.73-1.79,2.28
			c-0.56,0.55-1.05,0.83-1.47,0.83s-0.8-0.21-1.13-0.62c-0.33-0.41-0.62-1.15-0.87-2.21c-0.25-1.06-0.46-2.52-0.64-4.37
			c-0.18-1.85-0.34-4.23-0.48-7.13c0.47-1.53,0.96-3.18,1.45-4.94c0.5-1.76,0.98-3.55,1.45-5.38c0.47-1.83,0.92-3.67,1.35-5.52
			s0.79-3.64,1.1-5.37c0.31-1.72,0.55-3.34,0.74-4.85c0.19-1.51,0.28-2.86,0.28-4.04c0-1.51-0.24-2.56-0.73-3.13
			c-0.48-0.58-1.08-0.87-1.79-0.87c-1.18,0-2.31,0.61-3.38,1.82c-1.07,1.22-2.02,3.12-2.83,5.7c-0.81,2.59-1.46,5.89-1.93,9.91
			c-0.47,4.02-0.71,8.85-0.71,14.47c0,2.14,0.04,4.1,0.11,5.87c-0.98,1.96-1.94,3.64-2.87,5.06c-0.94,1.43-1.86,2.59-2.74,3.49
			c-0.89,0.9-1.76,1.56-2.62,1.98c-0.86,0.42-1.71,0.64-2.53,0.64c-0.99,0-1.89-0.19-2.69-0.58c-0.8-0.39-1.51-0.94-2.12-1.66
			c-0.61-0.72-1.12-1.58-1.52-2.58c-0.4-1-0.69-2.12-0.85-3.35c1.7-1.04,3.32-2.05,4.85-3.03c1.53-0.98,2.89-1.97,4.05-2.97
			c1.17-1,2.09-2.03,2.78-3.08c0.68-1.05,1.03-2.18,1.03-3.38c0-1.25-0.43-2.29-1.29-3.12c-0.86-0.83-2.11-1.24-3.74-1.24
			c-1.61,0-3.15,0.41-4.64,1.24c-1.49,0.83-2.81,1.98-3.98,3.47c-1.17,1.49-2.1,3.28-2.8,5.36c-0.6,1.79-0.92,3.76-1.01,5.89
			c-0.48,0.94-0.94,1.83-1.37,2.63c-0.74,1.39-1.43,2.57-2.07,3.52c-0.64,0.96-1.23,1.68-1.79,2.16c-0.55,0.48-1.1,0.73-1.65,0.73
			c-0.31,0-0.58-0.08-0.83-0.23c-0.25-0.15-0.46-0.45-0.64-0.89c-0.18-0.44-0.33-1.06-0.46-1.86c-0.13-0.8-0.24-1.84-0.32-3.12
			c-0.08-1.27-0.15-2.83-0.19-4.67c-0.05-1.84-0.08-4.02-0.11-6.55c0.99-2.88,1.89-5.66,2.71-8.34c0.81-2.68,1.51-5.21,2.07-7.58
			c0.57-2.37,1-4.57,1.31-6.59c0.31-2.02,0.46-3.81,0.46-5.37c0-0.76-0.06-1.37-0.19-1.86c-0.13-0.48-0.32-0.87-0.57-1.15
			c-0.25-0.28-0.55-0.48-0.92-0.58c-0.37-0.11-0.77-0.16-1.22-0.16c-1.27,0-2.44,0.6-3.51,1.79c-1.06,1.19-1.98,2.95-2.74,5.26
			c-0.77,2.31-1.36,5.18-1.79,8.6c-0.42,3.42-0.65,7.37-0.67,11.83c-0.66-0.99-1.53-1.83-2.6-2.51c-1.07-0.68-2.38-1.03-3.91-1.03
			c-1.35,0-2.6,0.25-3.77,0.74c-1.17,0.5-2.23,1.17-3.17,2.02c-0.94,0.85-1.78,1.85-2.51,2.99c-0.73,1.15-1.34,2.37-1.82,3.68
			c-0.48,1.31-0.86,2.66-1.12,4.05c-0.26,1.39-0.39,2.76-0.39,4.11c0,1.53,0.17,2.99,0.5,4.36c0.33,1.37,0.84,2.58,1.52,3.63
			c0.68,1.05,1.55,1.88,2.6,2.5c1.05,0.61,2.3,0.92,3.74,0.92c1.06,0,2.1-0.26,3.12-0.78c1.01-0.52,1.99-1.26,2.92-2.21
			c0.93-0.96,1.84-2.11,2.71-3.45c0.87-1.35,1.72-2.84,2.55-4.5c0.14,1.94,0.34,3.59,0.6,4.98c0.26,1.38,0.6,2.51,1.03,3.4
			c0.42,0.89,0.94,1.53,1.54,1.95c0.6,0.41,1.32,0.62,2.14,0.62c0.85,0,1.66-0.22,2.44-0.66c0.78-0.44,1.6-1.2,2.46-2.28
			c0.86-1.09,1.81-2.53,2.85-4.34c0.38-0.67,0.79-1.4,1.22-2.19c0.11,0.71,0.26,1.41,0.46,2.09c0.44,1.45,1.07,2.73,1.89,3.82
			c0.83,1.1,1.84,1.97,3.05,2.6s2.57,0.96,4.11,0.96c1.09,0,2.22-0.26,3.4-0.78c1.18-0.52,2.38-1.35,3.59-2.48
			c1.22-1.13,2.45-2.6,3.72-4.39c0.84-1.19,1.68-2.56,2.53-4.08c0.02,0.23,0.04,0.46,0.06,0.68c0.25,2.69,0.62,4.86,1.13,6.5
			c0.51,1.64,1.14,2.81,1.91,3.51c0.77,0.7,1.68,1.04,2.74,1.04c0.8,0,1.59-0.27,2.35-0.8c0.77-0.53,1.58-1.37,2.43-2.51
			c0.85-1.15,1.76-2.61,2.74-4.39c0.98-1.78,2.09-3.92,3.35-6.43l0.35-0.74L398.27,73.19z M387.5,58.85
			c0.09-1.94,0.22-3.83,0.39-5.68c0.16-1.85,0.35-3.61,0.55-5.26c0.2-1.65,0.42-3.1,0.67-4.36c0.25-1.25,0.5-2.24,0.76-2.97
			c0.26-0.73,0.52-1.1,0.78-1.1c0.26,0,0.45,0.14,0.57,0.42c0.12,0.28,0.18,0.67,0.18,1.17c0,1.37-0.11,2.97-0.32,4.8
			s-0.51,3.77-0.88,5.83c-0.38,2.05-0.81,4.17-1.29,6.36c-0.48,2.18-1.01,4.31-1.58,6.39C387.35,62.65,387.41,60.78,387.5,58.85z
			 M350.32,58.71c0-2.71,0.04-5.3,0.12-7.76c0.08-2.45,0.22-4.61,0.42-6.48c0.2-1.86,0.48-3.35,0.83-4.44
			c0.35-1.1,0.81-1.65,1.38-1.65c0.33,0,0.62,0.21,0.87,0.64c0.25,0.42,0.37,1.18,0.37,2.27c0,1.63-0.07,3.21-0.21,4.74
			c-0.14,1.53-0.37,3.13-0.67,4.78c-0.31,1.65-0.72,3.44-1.24,5.35c-0.52,1.91-1.15,4.06-1.88,6.44V58.71z M343.06,79.51
			c-0.73,1.33-1.45,2.42-2.16,3.26c-0.71,0.84-1.42,1.45-2.14,1.82c-0.72,0.38-1.46,0.57-2.21,0.57c-0.78,0-1.46-0.27-2.05-0.81
			c-0.59-0.54-1.09-1.27-1.51-2.2s-0.72-1.98-0.92-3.17s-0.3-2.44-0.3-3.74c0-1.58,0.15-3.16,0.46-4.74c0.31-1.58,0.78-3,1.42-4.27
			c0.64-1.26,1.44-2.29,2.41-3.08c0.97-0.79,2.1-1.19,3.4-1.19c1.25,0,2.4,0.44,3.45,1.31c1.05,0.87,1.84,2.08,2.35,3.61
			c0,1.46,0.01,2.84,0.04,4.13c0.02,1.29,0.06,2.5,0.11,3.63C344.57,76.55,343.79,78.18,343.06,79.51z M364.34,74.36
			c0-2.12,0.19-3.93,0.57-5.42c0.38-1.49,0.85-2.71,1.42-3.66c0.57-0.96,1.19-1.65,1.88-2.09c0.68-0.44,1.33-0.66,1.95-0.66
			c0.73,0,1.35,0.27,1.86,0.81c0.51,0.54,0.76,1.29,0.76,2.23c0,0.97-0.29,1.93-0.87,2.89c-0.58,0.96-1.29,1.86-2.14,2.71
			c-0.85,0.85-1.76,1.62-2.74,2.32s-1.87,1.26-2.67,1.68V74.36z"/>
	</g>
	<path d="M189.86,116.95c0-9.62-7.97-16.95-19.05-16.95h-20.52c-1.01,0-1.74,0.82-1.74,1.74v60.64c0,0.92,0.73,1.74,1.74,1.74h21.53
		c11.54,0,19.97-7.42,19.97-17.68c0-8.43-6.6-12.92-11.45-14.93C184.64,129.04,189.86,124,189.86,116.95z M157.89,108.61h12.37
		c5.86,0,9.43,3.85,9.43,9.43c0,5.5-3.57,9.8-9.43,9.8h-12.37V108.61z M181.61,145.71c0,5.68-4.31,9.98-9.89,9.98H157.8v-19.6h12.55
		C176.3,136.09,181.61,140.12,181.61,145.71z"/>
	<g>
		<path d="M251.32,161.74l-27.94-61.65c-0.27-0.55-1.1-1.01-1.56-1.01h-0.92c-0.46,0-1.28,0.46-1.56,1.01l-28.12,61.65
			c-0.55,1.19,0.18,2.38,1.56,2.38h5.77c1.1,0,1.83-0.73,2.11-1.37c1.83-4.21,3.76-8.34,5.59-12.55h29.95l5.68,12.55
			c0.37,0.82,1.01,1.37,2.11,1.37h5.77C251.14,164.12,251.87,162.93,251.32,161.74z M209.83,142.32l11.18-25.1h0.46l11.27,25.1
			H209.83z"/>
	</g>
	<path d="M282.74,165.04c13.28,0,22.72-6.05,22.72-6.05c0.37-0.28,0.73-1.01,0.73-1.47c0-7.33-0.09-14.84-0.09-22.17
		c0-0.92-0.73-1.74-1.65-1.74h-16.67c-1.01,0-1.74,0.73-1.74,1.74v5.31c0,0.92,0.73,1.65,1.74,1.65h8.98v10.26
		c-0.92,0.37-6.14,3.11-13.74,3.11c-13.01,0-22.99-10.99-22.99-23.72c0-12.82,9.98-23.82,22.99-23.82c5.59,0,11.27,2.47,15.57,6.23
		c0.92,0.82,1.65,0.92,2.38,0.09c1.37-1.47,2.75-2.84,4.12-4.31c0.73-0.73,0.64-1.83-0.09-2.57c-6.23-5.31-13.47-8.52-22.26-8.52
		c-18.23,0-32.98,14.75-32.98,33.07S264.51,165.04,282.74,165.04z"/>
	<path d="M353.28,108.61c1.01,0,1.74-0.82,1.74-1.74v-5.13c0-0.92-0.73-1.74-1.74-1.74h-36.64c-1.01,0-1.74,0.82-1.74,1.74v60.64
		c0,0.92,0.73,1.74,1.74,1.74h36.64c1.01,0,1.74-0.82,1.74-1.74v-5.04c0-0.92-0.73-1.74-1.74-1.74h-28.95v-19.69h24.46
		c0.92,0,1.74-0.73,1.74-1.74v-5.13c0-0.92-0.82-1.74-1.74-1.74h-24.46v-18.69H353.28z"/>
	<path d="M380.02,127.2c-7.6-3.11-11.63-6.32-11.63-11.54c0-3.39,2.66-8.24,10.35-8.24c5.31,0,11.72,4.21,12.37,4.58
		c1.28,0.82,2.47,0.28,3.21-0.92c0.73-1.1,1.56-2.38,2.29-3.48c0.92-1.37,0.18-2.66-0.55-3.11c-0.92-0.64-7.79-5.4-16.95-5.4
		c-14.56,0-20.06,9.8-20.06,16.95c0,10.63,7.33,15.48,16.67,19.42c9.07,3.76,13.83,7.24,13.83,12.73c0,4.67-4.03,8.52-10.35,8.52
		c-7.05,0-14.11-5.86-14.66-6.32c-1.01-0.82-2.29-0.46-3.11,0.73c-0.82,1.19-1.56,2.56-2.38,3.76c-0.92,1.56-0.27,2.2,0.55,2.93
		c1.47,1.37,8.52,7.24,19.69,7.24c11.91,0,20.43-7.79,20.43-17.31C399.72,136.55,390.65,131.51,380.02,127.2z"/>
	<path d="M109.19,171.09c-3.64,0-6.6,2.95-6.6,6.6s2.95,6.6,6.6,6.6s6.6-2.95,6.6-6.6S112.83,171.09,109.19,171.09z"/>
	<path d="M81.33,41.27c5.99-11.19,8.27-23.28,5.09-37.62c-0.75-1.27-1.54-1.66-2.52-1.66c-0.4,0-0.83,0.06-1.3,0.16
		c-3.72,0.74-6.78,2.28-10.11,3.5C67.8,7.49,61.63,6.75,56.7,8.17c-8.49,0.81-17.39,0.95-24.84,3.54
		C15.25,17.5,7.52,29.02,9.41,46.58c0.16,1.45,0.25,2.89,0.37,4.34c-0.1,3.21,1.46,6.51,3.07,9.83c0.62,1.28,1.42,2.12,2.87,2.12
		c0.1,0,0.2,0,0.31-0.01c0.11-0.2,5.65-8.25,9.18-12.12c0.53-0.58,2.45-2.21,3.06-2.68c15.07-11.64,25.25-16.14,29.91-17.69
		c-16.77,9.09-39.21,26.46-39.2,35.28c3.52,1.79,6.82,2.3,9.92,2.3c2.37,0,4.62-0.3,6.74-0.56C56.61,64.79,72.78,57.23,81.33,41.27z
		"/>
	<path d="M395.9,173.87H130.32c-2.11,0-3.82,1.71-3.82,3.82c0,2.11,1.71,3.82,3.82,3.82H395.9c2.11,0,3.82-1.71,3.82-3.82
		C399.72,175.58,398.01,173.87,395.9,173.87z"/>
	<path d="M19.35,71.17c-2.2,12.07,21.89,43.98,40.85,62.51c-5.51-3.82-17.28-13.67-33.46-35.06c-0.66-0.88-2.69-3.8-3.21-4.78
		c-3.51-6.58-8.52-19.6-8.61-19.92c-0.52-0.19-0.99-0.28-1.42-0.28c-1.29,0-2.24,0.79-3.12,2.01c-2.86,3.96-5.65,7.92-6.32,12.34
		c-0.51,1.93-0.98,3.87-1.54,5.8c-6.75,23.35,0.17,41.92,19.75,55.86c8.78,6.25,20.01,9.68,30.55,13.86
		c5.89,3.73,13.88,4.96,19.35,9.18c3.9,2.88,7.4,6.1,11.92,8.46c0.95,0.49,1.77,0.83,2.56,0.83c0.88,0,1.72-0.42,2.65-1.5
		c7.59-18.46,7.7-35.84,2.9-53.33C85.34,102.21,66.75,86,40.86,74.84c-4.67-2.01-9.8-4.34-15.88-4.34
		C23.19,70.5,21.32,70.7,19.35,71.17z"/>
	<path d="M227.14,0c-2.55,0-4.62,2.07-4.62,4.62s2.07,4.62,4.62,4.62s4.62-2.07,4.62-4.62S229.69,0,227.14,0z"/>
</g>
</svg>
