<?xml version="1.0" encoding="utf-8"?>
<!-- Generator: Adobe Illustrator 25.0.0, SVG Export Plug-In . SVG Version: 6.00 Build 0)  -->
<svg  version="1.1" id="Capa_1" xmlns="http://www.w3.org/2000/svg" xmlns:xlink="http://www.w3.org/1999/xlink" x="0px" y="0px"
	 width="40%" viewBox="0 0 800 368.83" style="enable-background:new 0 0 800 368.83;" xml:space="preserve">
<style type="text/css">
	.st0{fill:#FFFFFF;stroke:#000000;stroke-width:13;stroke-miterlimit:10;}
	.st1{fill:#FFFFFF;}
	.st2{fill:#8B8B8B;}
	.st3{fill:#A2A2A2;}
	.st4{fill:#A1A1A1;}
	.st5{fill:#F9F9F9;}
	.st6{fill:#F4F4F4;}
	.st7{fill:#F8F8F8;}
	.st8{fill:#4D4D4D;}
	.st9{fill:#F0F0F0;}
	.st10{fill:#EFEFEF;}
	.st11{fill:#EEEEEE;}
	.st12{fill:#F1F1F1;}
	.st13{fill:#ECECEC;}
	.st14{fill:#E9E9E9;}
	.st15{fill:#E3E3E3;}
	.st16{fill:#F5F5F5;}
	.st17{fill:#B8B8B8;}
	.st18{fill:#E5E5E5;}
	.st19{fill:#D0D0D0;}
	.st20{fill:#E8E8E8;}
	.st21{fill:#EDEDED;}
	.st22{fill:#E7E7E7;}
	.st23{fill:#EAEAEA;}
	.st24{fill:#EBEBEB;}
	.st25{fill:#E4E4E4;}
	.st26{fill:#DFDFDF;}
	.st27{fill:#D6D6D6;}
	.st28{fill:#E0E0E0;}
	.st29{fill:#C3C3C3;}
	.st30{fill:#DDDDDD;}
	.st31{fill:#4E4E4E;}
	.st32{fill:#C5C5C5;}
	.st33{fill:#515151;}
	.st34{fill:#505050;}
	.st35{fill:#FFFFFF;stroke:#000000;stroke-width:13;stroke-linejoin:round;stroke-miterlimit:10;}
	.st36{fill:#71A449;}
	.st37{fill:#204921;}
	.st38{display:none;stroke:#FFFFFF;stroke-width:4;stroke-linejoin:round;stroke-miterlimit:10;}
	.st39{display:none;}
	.st40{display:inline;}
	.st41{stroke:#FFFFFF;stroke-width:4;stroke-linejoin:round;stroke-miterlimit:10;}
	.st42{fill:none;stroke:#000000;stroke-width:10;stroke-linecap:round;stroke-miterlimit:10;}
	.st43{fill:none;}
	.st44{enable-background:new    ;}
</style>
<g>
	<path class="st43" d="M359.63,236.25c0-11.18-7.15-18.88-18.88-18.88H316v38.5h24.75C352.48,255.87,359.63,247.26,359.63,236.25z"
		/>
	<path class="st43" d="M340.93,272.37h-25.11v39.23h27.87c11.18,0,19.8-8.62,19.8-19.98C363.48,280.44,352.85,272.37,340.93,272.37z
		"/>
	<path class="st43" d="M707.37,101.69c0.61-3.31,1.06-6.49,1.35-9.57c0.28-3.07,0.43-6.24,0.43-9.5c0-2.17-0.25-3.69-0.74-4.54
		c-0.5-0.85-1.07-1.28-1.74-1.28c-1.13,0-2.06,1.1-2.76,3.3c-0.71,2.2-1.26,5.16-1.67,8.89c-0.4,3.73-0.68,8.06-0.85,12.97
		c-0.17,4.91-0.25,10.09-0.25,15.52v7.8c1.46-4.77,2.72-9.07,3.76-12.9C705.93,108.57,706.76,105,707.37,101.69z"/>
	<path class="st43" d="M780.94,103.46c0.75-4.11,1.35-8,1.77-11.66c0.43-3.66,0.64-6.86,0.64-9.6c0-0.99-0.12-1.77-0.36-2.34
		c-0.24-0.57-0.61-0.85-1.13-0.85c-0.52,0-1.04,0.73-1.56,2.2c-0.52,1.47-1.03,3.45-1.52,5.95c-0.5,2.51-0.95,5.41-1.35,8.72
		c-0.4,3.31-0.77,6.82-1.1,10.52c-0.33,3.71-0.59,7.5-0.78,11.38c-0.19,3.87-0.31,7.61-0.36,11.2c1.13-4.16,2.19-8.42,3.15-12.79
		C779.32,111.81,780.18,107.57,780.94,103.46z"/>
	<polygon class="st43" points="443.23,234.6 442.32,234.6 419.95,284.84 465.78,284.84 	"/>
	<g>
		<path d="M678.52,63.7c-1.42-2.72-3.28-5.14-5.58-7.27c-2.29-2.13-4.9-4.07-7.81-5.82c-2.91-1.75-5.84-3.36-8.78-4.85
			c-2.94-1.49-5.77-2.92-8.49-4.32c-2.72-1.39-5.04-2.83-6.98-4.31c0.19-0.65,0.44-1.42,0.73-2.33c0.29-0.91,0.58-1.89,0.87-2.96
			c0.29-1.07,0.53-2.13,0.73-3.2c0.19-1.07,0.29-2.08,0.29-3.05c0-2.07-0.61-3.8-1.84-5.19c-1.23-1.39-3.07-2.08-5.53-2.08
			c-1.36,0-2.65,0.29-3.88,0.87c-1.23,0.58-2.31,1.37-3.25,2.38c-0.94,1-1.68,2.2-2.23,3.59c-0.55,1.39-0.82,2.86-0.82,4.41
			c0,2.85,0.57,5.28,1.7,7.32c1.13,2.04,2.89,4.19,5.28,6.45l-9.89,21.63c-3.3,6.59-6.19,11.91-8.68,15.95
			c-2.49,4.04-4.64,7.15-6.45,9.31c-1.81,2.17-3.35,3.62-4.61,4.36c-1.26,0.74-2.31,1.12-3.15,1.12c-2.01,0-3.39-0.61-4.17-1.84
			c-0.78-1.23-1.16-3.59-1.16-7.08c0-2.78,0.31-5.95,0.92-9.5c0.61-3.56,1.37-7.23,2.28-11.01c0.9-3.78,1.89-7.53,2.96-11.25
			c1.07-3.72,2.05-7.16,2.96-10.33c0.9-3.17,1.66-5.95,2.28-8.34c0.61-2.39,0.92-4.11,0.92-5.14c0-1.42-0.45-2.44-1.36-3.06
			c-0.91-0.61-2.1-0.92-3.59-0.92c-1.75,0-3.65,0.26-5.72,0.78c-2.07,0.52-4.17,1.08-6.3,1.7c-2.13,0.62-4.25,1.18-6.35,1.7
			c-2.1,0.52-4.06,0.78-5.87,0.78c0-1.49-0.19-2.92-0.58-4.32c-0.39-1.39-0.97-2.62-1.75-3.69c-0.78-1.07-1.75-1.92-2.91-2.57
			s-2.52-0.97-4.07-0.97c-1.16,0-2.28,0.21-3.35,0.63c-1.07,0.42-2.04,1.02-2.91,1.79c-0.87,0.78-1.57,1.75-2.08,2.91
			c-0.52,1.16-0.78,2.49-0.78,3.98c0,1.88,0.34,3.56,1.02,5.04c0.68,1.49,1.6,2.78,2.76,3.88c1.16,1.1,2.52,1.97,4.07,2.62
			c1.55,0.65,3.17,1.07,4.85,1.26c-0.13,0.78-0.36,1.89-0.68,3.35c-0.32,1.45-0.78,3.1-1.36,4.95c-0.58,1.84-1.28,3.8-2.08,5.87
			c-0.81,2.07-1.7,4.07-2.67,6.01l-2.91,6.01c-2.46,4.91-4.64,9.07-6.55,12.46s-3.6,6.16-5.09,8.29c-1.49,2.13-2.8,3.67-3.93,4.61
			c-1.13,0.94-2.18,1.41-3.15,1.41c-1.62,0-2.75-1.26-3.39-3.78c-0.65-2.52-0.97-5.62-0.97-9.31c0-7.37,0.27-14.13,0.82-20.27
			c0.55-6.14,1.13-11.49,1.75-16.05c0.61-4.56,1.2-8.31,1.75-11.25c0.55-2.94,0.82-4.9,0.82-5.87c0-0.78-0.13-1.29-0.39-1.55
			c-0.26-0.26-0.78-0.39-1.55-0.39c-0.52,0-1.39,0.11-2.62,0.34c-1.23,0.23-2.49,0.58-3.78,1.07c-1.29,0.48-2.47,1.15-3.54,1.99
			c-1.07,0.84-1.67,1.88-1.79,3.1l-1.16,9.41c-0.39-1.29-1.13-2.86-2.23-4.7c-1.1-1.84-2.47-3.59-4.12-5.24
			c-1.65-1.65-3.57-3.05-5.77-4.22s-4.59-1.75-7.18-1.75c-4.27,0-8.34,1.11-12.22,3.35c-3.88,2.23-7.3,5.37-10.28,9.41
			c-2.97,4.04-5.33,8.86-7.08,14.45c-1.25,4-2.03,8.29-2.38,12.87c-2.29,4.36-4.83,8.64-7.65,12.83c-3.33,4.95-6.64,9.55-9.94,13.82
			V31.21c0-1.49-0.14-2.52-0.44-3.1c-0.29-0.58-1.15-0.87-2.57-0.87c-0.33,0-0.97,0.06-1.94,0.19c-0.97,0.13-1.99,0.36-3.06,0.68
			c-1.07,0.32-2.07,0.73-3.01,1.21c-0.94,0.48-1.6,1.12-1.99,1.89c-0.45,0.97-0.7,2.55-0.73,4.75c-0.03,2.2-0.16,4.75-0.39,7.66
			c-0.23,2.91-0.68,6.03-1.36,9.36c-0.68,3.33-1.83,6.64-3.44,9.94l-0.97,2.04c-3.3,6.59-6.14,11.98-8.53,16.15
			c-2.39,4.17-4.45,7.45-6.16,9.84c-1.71,2.39-3.14,4.02-4.27,4.9c-1.13,0.87-2.12,1.31-2.96,1.31c-2.65,0-3.98-2.13-3.98-6.4
			c0-3.3,0.21-6.93,0.63-10.91c0.42-3.98,0.91-8.05,1.45-12.22c0.55-4.17,1.03-8.27,1.45-12.32c0.42-4.04,0.63-7.71,0.63-11.01
			c0-5.24-1.13-9.39-3.4-12.46c-2.26-3.07-5.82-4.61-10.67-4.61c-2.72,0-5.38,0.65-8,1.94c-2.62,1.29-5.16,3.01-7.61,5.14
			c-2.46,2.13-4.82,4.59-7.08,7.37s-4.36,5.69-6.3,8.73c0.19-6.27,0.44-11.09,0.73-14.45c0.29-3.36,0.44-4.95,0.44-4.75
			c0-1.49-0.21-2.52-0.63-3.1c-0.42-0.58-1.18-0.87-2.28-0.87c-0.58,0-1.39,0.03-2.43,0.1s-2.1,0.24-3.2,0.53
			c-1.1,0.29-2.13,0.7-3.1,1.21c-0.97,0.52-1.65,1.23-2.04,2.13c-0.19,0.39-0.3,0.95-0.34,1.7c-0.03,0.74-0.05,1.76-0.05,3.06v27.37
			l-0.78,1.63c-2.72,5.43-5.37,10.1-7.95,14.01c-2.59,3.91-5.09,7.1-7.52,9.55c-2.42,2.46-4.82,4.27-7.18,5.43
			c-2.36,1.16-4.67,1.75-6.93,1.75c-2.72,0-5.17-0.53-7.37-1.6c-2.2-1.07-4.14-2.58-5.82-4.56c-1.68-1.97-3.07-4.33-4.17-7.08
			c-1.1-2.75-1.88-5.8-2.33-9.16c4.66-2.85,9.08-5.61,13.29-8.29c4.2-2.68,7.9-5.4,11.1-8.15c3.2-2.75,5.74-5.56,7.61-8.44
			c1.88-2.88,2.81-5.96,2.81-9.26c0-3.43-1.18-6.27-3.54-8.53c-2.36-2.26-5.77-3.39-10.23-3.39c-4.4,0-8.63,1.13-12.71,3.39
			c-4.07,2.26-7.71,5.43-10.91,9.5s-5.76,8.97-7.66,14.69c-1.66,4.98-2.6,10.44-2.81,16.38c-1.51,2.97-2.91,5.69-4.17,8.1
			c-2.1,4.01-3.94,7.32-5.53,9.94c-1.58,2.62-2.99,4.56-4.22,5.82c-1.23,1.26-2.36,1.89-3.39,1.89c-2.01,0-3.01-2-3.01-6.01
			c0-3.3,0.26-6.95,0.78-10.96c0.52-4.01,1.07-8.1,1.65-12.27s1.13-8.29,1.65-12.36c0.52-4.07,0.78-7.76,0.78-11.06
			c0-5.24-1.13-9.39-3.39-12.46c-2.26-3.07-5.85-4.61-10.77-4.61c-2.85,0-5.58,0.61-8.19,1.84s-5.11,2.91-7.47,5.04
			c-2.36,2.13-4.59,4.64-6.69,7.52c-2.1,2.88-4.06,5.97-5.87,9.26c-0.19-3.36-0.57-6.48-1.12-9.36c-0.55-2.88-1.39-5.38-2.52-7.52
			c-1.13-2.13-2.65-3.8-4.56-5c-1.91-1.2-4.32-1.79-7.23-1.79c-2.39,0-4.7,0.58-6.93,1.75c-2.23,1.16-4.35,2.73-6.35,4.7
			c-2.01,1.97-3.83,4.27-5.48,6.89c-1.65,2.62-3.09,5.38-4.32,8.29c0.13-2.72,0.19-5.43,0.19-8.15c0-2.72,0-5.75,0-9.12
			c0-1.49-0.19-2.59-0.58-3.3c-0.39-0.71-1.2-1.07-2.42-1.07c-0.52,0-1.26,0.03-2.23,0.1s-1.94,0.24-2.91,0.53
			c-0.97,0.29-1.89,0.7-2.76,1.21c-0.87,0.52-1.47,1.23-1.79,2.13c-0.19,0.58-0.34,1.6-0.44,3.05c-0.1,1.45-0.14,3.73-0.14,6.84
			c0,1.88,0.01,4.11,0.05,6.69c0.03,2.59,0.05,5.59,0.05,9.02s0.02,7.34,0.05,11.73c0.03,4.4,0.05,9.34,0.05,14.84
			c-0.32,1.55-0.66,3.22-1.02,4.99c-0.35,1.78-0.68,3.51-0.97,5.19s-0.53,3.25-0.73,4.7c-0.19,1.45-0.29,2.67-0.29,3.64
			c0,2,0.42,3.3,1.26,3.88s1.75,0.87,2.72,0.87c0.78,0,1.78-0.13,3-0.39c1.23-0.26,2.43-0.66,3.59-1.21
			c1.16-0.55,2.18-1.26,3.05-2.13c0.87-0.87,1.31-1.95,1.31-3.25c0-7.56,0.08-14.55,0.24-20.95c0.16-6.4,0.34-12.45,0.53-18.14
			v-1.16c1.42-3.49,2.86-6.77,4.32-9.84c1.45-3.07,2.96-5.75,4.51-8.05c1.55-2.29,3.18-4.1,4.9-5.43c1.71-1.32,3.51-1.99,5.38-1.99
			c1.55,0,2.81,0.53,3.78,1.6s1.73,2.57,2.28,4.51s0.92,4.27,1.12,6.98c0.19,2.72,0.29,5.72,0.29,9.02c0,1.55-0.01,3.41-0.05,5.58
			c-0.03,2.17-0.08,4.43-0.15,6.79c-0.06,2.36-0.13,4.74-0.19,7.13c-0.06,2.39-0.13,4.56-0.19,6.5c-0.32,2.07-0.65,4.11-0.97,6.11
			c-0.32,2-0.61,3.88-0.87,5.62c-0.26,1.75-0.47,3.33-0.63,4.75c-0.16,1.42-0.24,2.55-0.24,3.39c0,1.81,0.37,3.02,1.12,3.64
			c0.74,0.62,1.63,0.92,2.67,0.92c0.45,0,1.11-0.06,1.99-0.19c0.87-0.13,1.78-0.32,2.72-0.58c0.94-0.26,1.79-0.58,2.57-0.97
			c0.78-0.39,1.32-0.81,1.65-1.26c0.45-0.71,0.87-2.09,1.26-4.12c0.39-2.04,0.7-4.8,0.92-8.29c0.23-3.49,0.4-7.77,0.53-12.85
			c0.13-5.07,0.19-11.01,0.19-17.8c1.36-3.1,2.96-6.24,4.8-9.41s3.82-6.03,5.92-8.58c2.1-2.55,4.27-4.64,6.5-6.25
			c2.23-1.62,4.38-2.42,6.45-2.42c2.07,0,3.62,0.73,4.66,2.18c1.03,1.45,1.55,3.38,1.55,5.77c0,2.72-0.26,6.22-0.78,10.52
			c-0.52,4.3-1.1,8.87-1.75,13.72c-0.65,4.85-1.23,9.7-1.75,14.55c-0.52,4.85-0.78,9.21-0.78,13.09c0,2.59,0.29,4.7,0.87,6.35
			c0.58,1.65,1.36,2.96,2.33,3.93c0.97,0.97,2.1,1.65,3.4,2.04c1.29,0.39,2.62,0.58,3.97,0.58c2.33,0,4.45-0.58,6.35-1.75
			c1.91-1.16,3.93-3.22,6.06-6.16c2.13-2.94,4.54-6.9,7.23-11.88c0.97-1.8,2.02-3.78,3.13-5.93c0.3,1.87,0.69,3.7,1.23,5.49
			c1.2,3.98,2.92,7.47,5.19,10.47c2.26,3.01,5.04,5.38,8.34,7.13c3.3,1.75,7.05,2.62,11.25,2.62c2.97,0,6.08-0.71,9.31-2.13
			c3.23-1.42,6.51-3.69,9.84-6.79c3.33-3.1,6.72-7.11,10.18-12.03c2.4-3.41,4.81-7.31,7.22-11.69v9.36
			c-0.32,1.55-0.66,3.22-1.02,4.99c-0.36,1.78-0.68,3.51-0.97,5.19c-0.29,1.68-0.53,3.25-0.73,4.7c-0.19,1.45-0.29,2.67-0.29,3.64
			c0,2,0.42,3.3,1.26,3.88c0.84,0.58,1.75,0.87,2.72,0.87c0.78,0,1.78-0.13,3.01-0.39c1.23-0.26,2.42-0.63,3.59-1.12
			s2.18-1.1,3.06-1.84c0.87-0.74,1.31-1.6,1.31-2.57c0-7.63,0.08-14.81,0.24-21.53s0.34-12.93,0.53-18.62
			c1.55-3.1,3.38-6.24,5.48-9.41s4.28-6.03,6.55-8.58c2.26-2.55,4.51-4.64,6.74-6.25c2.23-1.62,4.25-2.42,6.06-2.42
			c2.07,0,3.62,0.73,4.66,2.18c1.03,1.45,1.55,3.38,1.55,5.77c0,2.72-0.26,6.22-0.78,10.52c-0.52,4.3-1.1,8.87-1.75,13.72
			c-0.65,4.85-1.23,9.7-1.75,14.55c-0.52,4.85-0.78,9.21-0.78,13.09c0,2.59,0.32,4.7,0.97,6.35c0.64,1.65,1.49,2.96,2.52,3.93
			c1.03,0.97,2.23,1.65,3.59,2.04c1.36,0.39,2.72,0.58,4.07,0.58c2.13,0,4.27-0.57,6.4-1.7c2.13-1.13,4.43-3.15,6.89-6.06
			c2.46-2.91,5.19-6.85,8.19-11.83s6.45-11.35,10.33-19.11l1.94-3.98h0.97v41.9c-2.91,3.55-5.62,6.97-8.15,10.23
			c-2.52,3.26-4.74,6.45-6.64,9.55c-1.91,3.1-3.39,6.11-4.46,9.02c-1.07,2.91-1.6,5.82-1.6,8.73c0,2,0.32,3.8,0.97,5.38
			c0.65,1.58,1.55,2.94,2.72,4.07c1.16,1.13,2.54,1.99,4.12,2.57s3.31,0.87,5.19,0.87c2.97,0,5.72-0.58,8.24-1.75
			s4.72-3.06,6.59-5.67c1.88-2.62,3.35-6.01,4.41-10.18c1.07-4.17,1.6-9.23,1.6-15.18v-21.63c2-2.65,4.09-5.43,6.26-8.34
			c2.16-2.91,4.25-5.83,6.26-8.78c1.75-2.58,3.41-5.11,4.99-7.61c0.27,3.99,0.93,7.57,1.99,10.72c1.42,4.24,3.31,7.74,5.67,10.52
			c2.36,2.78,5.06,4.85,8.1,6.21c3.04,1.36,6.17,2.04,9.41,2.04c2.2,0,4.4-0.58,6.59-1.75c2.2-1.16,4.31-2.75,6.35-4.75
			c2.04-2,3.99-4.35,5.87-7.03c1.87-2.68,3.59-5.58,5.14-8.68c0.19,3.04,0.55,5.9,1.07,8.58c0.52,2.68,1.26,5.04,2.23,7.08
			c0.97,2.04,2.18,3.64,3.64,4.8c1.46,1.16,3.25,1.75,5.38,1.75c2,0,4.03-0.79,6.06-2.38c2.04-1.58,4.12-3.86,6.25-6.84
			c2.13-2.97,4.38-6.61,6.74-10.91c2.36-4.3,4.9-9.16,7.61-14.59l1.93-3.99l0.01,0.01l0.97-2.04c0.97-2,1.91-4.14,2.81-6.4
			c0.9-2.26,1.71-4.46,2.42-6.59c0.71-2.13,1.28-4.07,1.7-5.82c0.42-1.75,0.7-3.07,0.83-3.98c2.52-0.26,5.01-1,7.47-2.23
			c2.46-1.23,4.77-2.54,6.93-3.93c2.16-1.39,4.12-2.63,5.87-3.73s3.13-1.65,4.17-1.65l0.58,0.58c-0.52,2-1.39,4.33-2.62,6.98
			c-1.23,2.65-2.6,5.51-4.12,8.58c-1.52,3.07-3.12,6.32-4.8,9.75c-1.68,3.43-3.2,6.9-4.56,10.42c-1.36,3.53-2.49,7.06-3.39,10.62
			c-0.91,3.56-1.36,6.98-1.36,10.28c0,6.08,1.2,10.57,3.59,13.48c2.39,2.91,5.5,4.36,9.31,4.36c2.26,0,4.53-0.57,6.79-1.7
			c2.26-1.13,4.67-3.15,7.23-6.06c2.55-2.91,5.35-6.85,8.39-11.83c3.04-4.98,6.5-11.35,10.38-19.11l0.97-2.04l-0.04-0.03l8.77-19.46
			c1.68,1.62,3.65,3.23,5.92,4.85c2.26,1.62,4.57,3.28,6.93,4.99c2.36,1.71,4.69,3.51,6.98,5.38c2.29,1.88,4.35,3.88,6.16,6.01
			c1.81,2.13,3.26,4.4,4.36,6.79c1.1,2.39,1.65,4.98,1.65,7.76c0,2.91-0.4,5.59-1.21,8.05c-0.81,2.46-1.97,4.57-3.49,6.35
			c-1.52,1.78-3.35,3.17-5.48,4.17c-2.13,1-4.49,1.5-7.08,1.5c-5.11,0-9.13-1.28-12.07-3.83c-2.94-2.55-4.41-5.96-4.41-10.23
			c0-2.33,0.45-4.51,1.36-6.55c0.9-2.04,2.12-3.78,3.64-5.24s3.26-2.6,5.24-3.44c1.97-0.84,3.99-1.26,6.06-1.26v-2.81
			c-1.68-0.39-3.3-0.58-4.85-0.58c-2.46,0-4.78,0.45-6.98,1.36c-2.2,0.91-4.16,2.15-5.87,3.73c-1.71,1.59-3.07,3.49-4.07,5.72
			c-1,2.23-1.5,4.64-1.5,7.23c0,2.59,0.52,5.09,1.55,7.52c1.03,2.42,2.52,4.59,4.46,6.5c1.94,1.91,4.28,3.43,7.03,4.56
			c2.75,1.13,5.87,1.7,9.36,1.7c4.85,0,9.16-0.94,12.95-2.81c3.78-1.88,6.95-4.38,9.5-7.52c2.55-3.13,4.49-6.72,5.82-10.76
			c1.32-4.04,1.99-8.26,1.99-12.66C680.66,69.48,679.95,66.41,678.52,63.7z M312.91,66.12c0-5.82,0.52-10.76,1.55-14.84
			c1.03-4.07,2.33-7.42,3.88-10.04c1.55-2.62,3.26-4.52,5.14-5.72c1.87-1.2,3.65-1.79,5.33-1.79c2,0,3.7,0.74,5.09,2.23
			c1.39,1.49,2.08,3.52,2.08,6.11c0,2.65-0.79,5.28-2.38,7.9s-3.54,5.09-5.87,7.42c-2.33,2.33-4.83,4.45-7.52,6.35
			c-2.68,1.91-5.12,3.44-7.32,4.61V66.12z M447.9,128.48c0,4.98-0.27,8.92-0.82,11.83c-0.55,2.91-1.25,5.11-2.09,6.59
			c-0.84,1.49-1.79,2.44-2.86,2.86c-1.07,0.42-2.12,0.63-3.15,0.63c-2,0-3.55-0.76-4.66-2.28c-1.1-1.52-1.65-3.28-1.65-5.28
			c0-2.13,0.39-4.33,1.16-6.59c0.78-2.26,1.84-4.61,3.2-7.03s2.96-4.91,4.8-7.47s3.86-5.19,6.06-7.9V128.48z M526.9,73.2
			c-1.26,4.78-2.88,8.84-4.85,12.17c-1.97,3.33-4.14,5.88-6.5,7.66c-2.36,1.78-4.64,2.67-6.84,2.67c-5.04,0-9.08-2.54-12.12-7.61
			c-3.04-5.07-4.56-12.46-4.56-22.16c0-4.85,0.52-9.29,1.55-13.34c1.04-4.04,2.44-7.5,4.22-10.38c1.78-2.88,3.88-5.11,6.31-6.69
			c2.42-1.58,5.03-2.38,7.81-2.38c2.26,0,4.41,0.68,6.45,2.04c2.04,1.36,3.83,3.15,5.38,5.38c1.55,2.23,2.78,4.79,3.69,7.66
			c0.9,2.88,1.36,5.8,1.36,8.78C528.79,63.02,528.16,68.42,526.9,73.2z M571.02,32.13c-0.62-0.16-1.21-0.42-1.79-0.78
			c-0.58-0.35-1.07-0.81-1.45-1.36c-0.39-0.55-0.58-1.21-0.58-1.99c0-0.52,0.19-0.97,0.58-1.36s0.87-0.58,1.45-0.58
			c1.1,0,1.94,0.6,2.52,1.79c0.58,1.2,0.87,2.7,0.87,4.51C572.17,32.37,571.64,32.29,571.02,32.13z M638.81,30.14
			c-0.36,1.29-0.86,2.62-1.5,3.98c-1.49-1.36-2.52-2.75-3.1-4.17c-0.58-1.42-0.87-2.72-0.87-3.88c0-1.03,0.27-1.86,0.82-2.47
			c0.55-0.61,1.28-0.92,2.18-0.92c0.9,0,1.63,0.34,2.18,1.02c0.55,0.68,0.82,1.54,0.82,2.57C639.34,27.56,639.17,28.85,638.81,30.14
			z"/>
	</g>
	<g>
		<path d="M797.1,146.48l-0.71,1.49c-1.51,3.02-2.98,5.84-4.39,8.43c-1.42,2.6-2.76,4.87-4.04,6.8c-1.28,1.94-2.47,3.46-3.58,4.57
			c-1.11,1.11-2.09,1.67-2.94,1.67c-0.85,0-1.61-0.41-2.27-1.24c-0.66-0.83-1.24-2.3-1.74-4.43c-0.5-2.13-0.92-5.04-1.28-8.75
			c-0.36-3.71-0.67-8.47-0.96-14.28c0.94-3.07,1.91-6.37,2.91-9.89c0.99-3.52,1.96-7.11,2.9-10.77c0.94-3.66,1.84-7.35,2.69-11.06
			s1.58-7.29,2.2-10.74c0.61-3.45,1.11-6.68,1.49-9.71c0.38-3.02,0.57-5.72,0.57-8.08c0-3.02-0.48-5.11-1.45-6.27
			c-0.97-1.16-2.16-1.74-3.58-1.74c-2.36,0-4.62,1.22-6.77,3.65c-2.15,2.43-4.04,6.24-5.67,11.41c-1.63,5.17-2.92,11.79-3.86,19.84
			c-0.94,8.06-1.42,17.71-1.42,28.95c0,4.29,0.07,8.2,0.22,11.75c-1.96,3.91-3.88,7.29-5.75,10.12c-1.89,2.86-3.72,5.18-5.49,6.98
			c-1.77,1.8-3.52,3.12-5.24,3.97c-1.73,0.85-3.42,1.28-5.07,1.28c-1.98,0-3.78-0.39-5.39-1.17c-1.61-0.78-3.02-1.89-4.25-3.33
			c-1.23-1.44-2.24-3.16-3.05-5.17c-0.8-2.01-1.37-4.24-1.7-6.7c3.4-2.08,6.64-4.1,9.71-6.06c3.07-1.96,5.78-3.94,8.11-5.95
			c2.34-2.01,4.19-4.06,5.56-6.17c1.37-2.1,2.05-4.36,2.05-6.77c0-2.5-0.86-4.58-2.59-6.24c-1.73-1.65-4.22-2.48-7.48-2.48
			c-3.21,0-6.31,0.83-9.28,2.48c-2.98,1.65-5.63,3.97-7.97,6.95c-2.34,2.98-4.21,6.56-5.6,10.74c-1.19,3.58-1.85,7.52-2.02,11.78
			c-0.96,1.89-1.87,3.65-2.73,5.26c-1.49,2.79-2.87,5.14-4.15,7.05c-1.28,1.91-2.47,3.36-3.58,4.32s-2.21,1.45-3.29,1.45
			c-0.61,0-1.17-0.15-1.67-0.46c-0.5-0.31-0.92-0.9-1.28-1.77c-0.35-0.87-0.66-2.11-0.92-3.72c-0.26-1.61-0.47-3.69-0.64-6.24
			c-0.17-2.55-0.3-5.67-0.39-9.35c-0.1-3.69-0.17-8.05-0.21-13.11c1.98-5.76,3.79-11.33,5.42-16.69c1.63-5.36,3.01-10.42,4.15-15.17
			c1.13-4.75,2.01-9.14,2.62-13.18c0.61-4.04,0.92-7.62,0.92-10.74c0-1.51-0.13-2.75-0.39-3.72c-0.26-0.97-0.64-1.74-1.13-2.3
			c-0.5-0.57-1.11-0.96-1.84-1.17c-0.73-0.21-1.55-0.32-2.45-0.32c-2.55,0-4.89,1.19-7.02,3.58c-2.13,2.39-3.96,5.89-5.49,10.52
			c-1.54,4.63-2.73,10.37-3.58,17.22c-0.85,6.85-1.3,14.74-1.35,23.67c-1.32-1.98-3.06-3.66-5.21-5.03
			c-2.15-1.37-4.76-2.06-7.83-2.06c-2.69,0-5.21,0.5-7.55,1.49c-2.34,0.99-4.45,2.34-6.34,4.04c-1.89,1.7-3.57,3.7-5.03,5.99
			c-1.47,2.29-2.68,4.75-3.65,7.37c-0.97,2.62-1.71,5.33-2.23,8.12c-0.52,2.79-0.78,5.53-0.78,8.22c0,3.07,0.33,5.98,0.99,8.72
			c0.66,2.74,1.68,5.16,3.05,7.26c1.37,2.1,3.11,3.77,5.21,5c2.1,1.23,4.6,1.84,7.48,1.84c2.13,0,4.2-0.52,6.24-1.56
			c2.03-1.04,3.98-2.52,5.85-4.43c1.87-1.91,3.67-4.22,5.42-6.91c1.75-2.69,3.45-5.69,5.1-9c0.28,3.87,0.68,7.19,1.21,9.96
			c0.52,2.76,1.2,5.03,2.05,6.8c0.85,1.77,1.88,3.07,3.08,3.9c1.21,0.83,2.63,1.24,4.29,1.24c1.7,0,3.33-0.44,4.89-1.31
			s3.2-2.4,4.93-4.57c1.72-2.17,3.63-5.07,5.71-8.68c0.77-1.33,1.58-2.8,2.44-4.39c0.22,1.43,0.52,2.82,0.93,4.18
			c0.87,2.91,2.14,5.46,3.79,7.65c1.65,2.2,3.69,3.93,6.09,5.21c2.41,1.28,5.15,1.91,8.22,1.91c2.17,0,4.44-0.52,6.8-1.56
			c2.36-1.04,4.76-2.69,7.19-4.96c2.43-2.27,4.91-5.2,7.44-8.79c1.68-2.39,3.37-5.13,5.06-8.17c0.04,0.46,0.07,0.92,0.11,1.36
			c0.5,5.39,1.25,9.72,2.27,13c1.01,3.28,2.29,5.62,3.83,7.02c1.53,1.39,3.37,2.09,5.49,2.09c1.61,0,3.18-0.53,4.71-1.59
			c1.53-1.06,3.15-2.74,4.85-5.03c1.7-2.29,3.53-5.22,5.49-8.79c1.96-3.57,4.19-7.86,6.7-12.86l0.71-1.49L797.1,146.48z
			 M775.55,117.78c0.19-3.87,0.45-7.67,0.78-11.38c0.33-3.71,0.7-7.22,1.1-10.52c0.4-3.31,0.85-6.21,1.35-8.72
			c0.5-2.5,1-4.49,1.52-5.95c0.52-1.46,1.04-2.2,1.56-2.2c0.52,0,0.9,0.28,1.13,0.85c0.24,0.57,0.36,1.35,0.36,2.34
			c0,2.74-0.21,5.94-0.64,9.6c-0.43,3.66-1.02,7.55-1.77,11.66c-0.76,4.11-1.62,8.35-2.59,12.72c-0.97,4.37-2.02,8.64-3.15,12.79
			C775.24,125.39,775.36,121.65,775.55,117.78z M701.14,117.5c0-5.43,0.08-10.61,0.25-15.52c0.17-4.91,0.45-9.24,0.85-12.97
			c0.4-3.73,0.96-6.7,1.67-8.89c0.71-2.2,1.63-3.3,2.76-3.3c0.66,0,1.24,0.43,1.74,1.28c0.5,0.85,0.74,2.36,0.74,4.54
			c0,3.26-0.14,6.43-0.43,9.5c-0.28,3.07-0.73,6.26-1.35,9.57c-0.61,3.31-1.44,6.88-2.48,10.7c-1.04,3.83-2.29,8.13-3.76,12.9V117.5
			z M686.61,159.13c-1.47,2.67-2.9,4.84-4.32,6.52c-1.42,1.68-2.85,2.89-4.29,3.65c-1.44,0.76-2.92,1.13-4.43,1.13
			c-1.56,0-2.93-0.54-4.11-1.63c-1.18-1.09-2.19-2.55-3.01-4.39c-0.83-1.84-1.44-3.96-1.84-6.34c-0.4-2.39-0.6-4.88-0.6-7.48
			c0-3.16,0.31-6.33,0.92-9.5c0.61-3.16,1.56-6.01,2.83-8.54c1.28-2.53,2.88-4.58,4.82-6.17c1.94-1.58,4.2-2.37,6.8-2.37
			c2.5,0,4.81,0.87,6.91,2.62c2.1,1.75,3.67,4.16,4.71,7.23c0,2.93,0.02,5.68,0.07,8.26c0.05,2.58,0.12,5,0.21,7.26
			C689.63,153.21,688.07,156.46,686.61,159.13z M729.2,148.82c0-4.25,0.38-7.87,1.13-10.84c0.75-2.98,1.7-5.42,2.83-7.33
			c1.13-1.91,2.38-3.31,3.76-4.18c1.37-0.87,2.67-1.31,3.9-1.31c1.46,0,2.7,0.54,3.72,1.63c1.01,1.09,1.52,2.58,1.52,4.47
			c0,1.94-0.58,3.86-1.74,5.78c-1.16,1.91-2.59,3.72-4.29,5.42s-3.53,3.25-5.49,4.64c-1.96,1.39-3.74,2.52-5.35,3.37V148.82z"/>
	</g>
	<path d="M379.98,234.06c0-19.25-15.95-33.92-38.13-33.92h-41.07c-2.02,0-3.48,1.65-3.48,3.48v121.37c0,1.83,1.47,3.48,3.48,3.48
		h43.08c23.1,0,39.97-14.85,39.97-35.38c0-16.87-13.2-25.85-22.92-29.88C369.53,258.26,379.98,248.17,379.98,234.06z M316,217.37
		h24.75c11.73,0,18.88,7.7,18.88,18.88c0,11-7.15,19.62-18.88,19.62H316V217.37z M363.48,291.62c0,11.37-8.62,19.98-19.8,19.98
		h-27.87v-39.23h25.11C352.85,272.37,363.48,280.44,363.48,291.62z"/>
	<g>
		<path d="M503,323.7l-55.92-123.38c-0.55-1.1-2.2-2.02-3.12-2.02h-1.83c-0.92,0-2.57,0.92-3.12,2.02L382.74,323.7
			c-1.1,2.38,0.37,4.77,3.12,4.77h11.55c2.2,0,3.67-1.47,4.22-2.75c3.67-8.43,7.52-16.68,11.18-25.12h59.95l11.37,25.12
			c0.73,1.65,2.02,2.75,4.22,2.75h11.55C502.63,328.47,504.1,326.09,503,323.7z M419.95,284.84l22.37-50.23h0.92l22.55,50.23H419.95
			z"/>
	</g>
	<path d="M565.88,330.3c26.58,0,45.47-12.1,45.47-12.1c0.73-0.55,1.47-2.02,1.47-2.93c0-14.67-0.18-29.7-0.18-44.37
		c0-1.83-1.47-3.48-3.3-3.48h-33.37c-2.02,0-3.48,1.47-3.48,3.48v10.63c0,1.84,1.47,3.3,3.48,3.3h17.97v20.53
		c-1.83,0.73-12.28,6.23-27.5,6.23c-26.03,0-46.02-22-46.02-47.48c0-25.67,19.98-47.67,46.02-47.67c11.18,0,22.55,4.95,31.17,12.47
		c1.83,1.65,3.3,1.83,4.77,0.18c2.75-2.93,5.5-5.68,8.25-8.62c1.47-1.47,1.28-3.67-0.18-5.13c-12.47-10.63-26.95-17.05-44.55-17.05
		c-36.48,0-66,29.51-66,66.18S529.4,330.3,565.88,330.3z"/>
	<path d="M707.05,217.37c2.02,0,3.48-1.65,3.48-3.48v-10.27c0-1.83-1.47-3.48-3.48-3.48h-73.33c-2.02,0-3.48,1.65-3.48,3.48v121.37
		c0,1.83,1.47,3.48,3.48,3.48h73.33c2.02,0,3.48-1.65,3.48-3.48V314.9c0-1.83-1.47-3.48-3.48-3.48h-57.93V272h48.95
		c1.83,0,3.48-1.47,3.48-3.48v-10.26c0-1.84-1.65-3.49-3.48-3.49h-48.95v-37.4H707.05z"/>
	<path d="M760.58,254.59c-15.22-6.23-23.28-12.65-23.28-23.1c0-6.78,5.32-16.5,20.72-16.5c10.63,0,23.47,8.43,24.75,9.17
		c2.57,1.65,4.95,0.55,6.42-1.83c1.47-2.2,3.12-4.77,4.58-6.97c1.83-2.75,0.37-5.31-1.1-6.23c-1.83-1.28-15.58-10.82-33.92-10.82
		c-29.15,0-40.15,19.62-40.15,33.91c0,21.27,14.67,30.98,33.37,38.87c18.15,7.52,27.68,14.48,27.68,25.48
		c0,9.35-8.07,17.05-20.72,17.05c-14.12,0-28.23-11.73-29.33-12.65c-2.02-1.65-4.58-0.92-6.23,1.47c-1.65,2.38-3.12,5.13-4.77,7.52
		c-1.83,3.12-0.55,4.4,1.1,5.87c2.93,2.75,17.05,14.48,39.42,14.48c23.83,0,40.88-15.58,40.88-34.65
		C800,273.29,781.85,263.2,760.58,254.59z"/>
	<path d="M218.53,342.43c-7.29,0-13.2,5.91-13.2,13.2s5.91,13.2,13.2,13.2s13.2-5.91,13.2-13.2S225.82,342.43,218.53,342.43z"/>
	<path d="M162.77,82.59c11.99-22.39,16.56-46.6,10.18-75.29c-1.5-2.54-3.07-3.32-5.05-3.32c-0.8,0-1.66,0.13-2.6,0.31
		c-7.44,1.48-13.58,4.56-20.23,7.01c-9.38,3.68-21.73,2.21-31.6,5.05c-16.99,1.61-34.81,1.91-49.71,7.09
		C30.53,35.02,15.06,58.08,18.84,93.23c0.31,2.91,0.49,5.79,0.74,8.68c-0.19,6.42,2.92,13.04,6.14,19.68
		c1.24,2.56,2.84,4.24,5.75,4.24c0.2,0,0.4-0.01,0.61-0.02c0.21-0.41,11.3-16.51,18.37-24.26c1.05-1.15,4.9-4.42,6.13-5.37
		c30.16-23.29,50.54-32.3,59.87-35.4c-33.55,18.2-78.47,52.96-78.46,70.61c7.04,3.58,13.65,4.61,19.85,4.61
		c4.74,0,9.24-0.6,13.48-1.13C113.29,129.67,145.66,114.55,162.77,82.59z"/>
	<path d="M792.36,347.99H260.83c-4.22,0-7.64,3.42-7.64,7.64c0,4.22,3.42,7.64,7.64,7.64h531.53c4.22,0,7.64-3.42,7.64-7.64
		C800,351.41,796.58,347.99,792.36,347.99z"/>
	<path d="M38.73,142.44c-4.4,24.16,43.81,88.02,81.75,125.11c-11.03-7.64-34.58-27.36-66.97-70.18c-1.33-1.75-5.38-7.62-6.43-9.57
		c-7.02-13.17-17.06-39.23-17.22-39.86c-1.03-0.39-1.97-0.57-2.84-0.57c-2.57,0-4.49,1.59-6.25,4.03
		c-5.73,7.92-11.3,15.85-12.66,24.7c-1.02,3.87-1.97,7.74-3.08,11.61c-13.51,46.74,0.35,83.91,39.54,111.8
		c17.57,12.51,40.04,19.37,61.14,27.75c11.78,7.47,27.78,9.94,38.73,18.38c7.8,5.76,14.81,12.21,23.85,16.93
		c1.9,0.99,3.54,1.67,5.12,1.67c1.76,0,3.44-0.84,5.3-3c15.19-36.94,15.41-71.73,5.8-106.73c-13.72-49.95-50.92-82.39-102.75-104.74
		c-9.34-4.03-19.62-8.68-31.78-8.68C46.41,141.1,42.66,141.5,38.73,142.44z"/>
	<path d="M454.6,0c-5.11,0-9.25,4.14-9.25,9.25s4.14,9.25,9.25,9.25c5.11,0,9.25-4.14,9.25-9.25S459.71,0,454.6,0z"/>
</g>
</svg>
