<?xml version="1.0" encoding="utf-8"?>
<!-- Generator: Adobe Illustrator 25.0.0, SVG Export Plug-In . SVG Version: 6.00 Build 0)  -->
<svg version="1.1" id="Capa_1" xmlns="http://www.w3.org/2000/svg" xmlns:xlink="http://www.w3.org/1999/xlink" x="0px" y="0px"
	 viewBox="0 0 1200 553.24" style="enable-background:new 0 0 1200 553.24;" xml:space="preserve">
<style type="text/css">
	.st0{fill:#FFFFFF;stroke:#000000;stroke-width:13;stroke-miterlimit:10;}
	.st1{fill:#FFFFFF;}
	.st2{fill:#8B8B8B;}
	.st3{fill:#A2A2A2;}
	.st4{fill:#A1A1A1;}
	.st5{fill:#F9F9F9;}
	.st6{fill:#F4F4F4;}
	.st7{fill:#F8F8F8;}
	.st8{fill:#4D4D4D;}
	.st9{fill:#F0F0F0;}
	.st10{fill:#EFEFEF;}
	.st11{fill:#EEEEEE;}
	.st12{fill:#F1F1F1;}
	.st13{fill:#ECECEC;}
	.st14{fill:#E9E9E9;}
	.st15{fill:#E3E3E3;}
	.st16{fill:#F5F5F5;}
	.st17{fill:#B8B8B8;}
	.st18{fill:#E5E5E5;}
	.st19{fill:#D0D0D0;}
	.st20{fill:#E8E8E8;}
	.st21{fill:#EDEDED;}
	.st22{fill:#E7E7E7;}
	.st23{fill:#EAEAEA;}
	.st24{fill:#EBEBEB;}
	.st25{fill:#E4E4E4;}
	.st26{fill:#DFDFDF;}
	.st27{fill:#D6D6D6;}
	.st28{fill:#E0E0E0;}
	.st29{fill:#C3C3C3;}
	.st30{fill:#DDDDDD;}
	.st31{fill:#4E4E4E;}
	.st32{fill:#C5C5C5;}
	.st33{fill:#515151;}
	.st34{fill:#505050;}
	.st35{fill:#FFFFFF;stroke:#000000;stroke-width:13;stroke-linejoin:round;stroke-miterlimit:10;}
	.st36{fill:#71A449;}
	.st37{fill:#204921;}
	.st38{display:none;stroke:#FFFFFF;stroke-width:4;stroke-linejoin:round;stroke-miterlimit:10;}
	.st39{display:none;}
	.st40{display:inline;}
	.st41{stroke:#FFFFFF;stroke-width:4;stroke-linejoin:round;stroke-miterlimit:10;}
	.st42{fill:none;stroke:#000000;stroke-width:10;stroke-linecap:round;stroke-miterlimit:10;}
	.st43{fill:none;}
	.st44{enable-background:new    ;}
</style>
<g>
	<path class="st43" d="M539.45,354.38c0-16.77-10.72-28.32-28.32-28.32H474v57.75h37.13C528.72,383.81,539.45,370.88,539.45,354.38z
		"/>
	<path class="st43" d="M511.4,408.56h-37.67v58.85h41.8c16.77,0,29.7-12.92,29.7-29.98C545.22,420.66,529.27,408.56,511.4,408.56z"
		/>
	<path class="st43" d="M1061.06,152.54c0.92-4.96,1.59-9.74,2.02-14.35c0.43-4.61,0.64-9.35,0.64-14.24c0-3.26-0.37-5.53-1.12-6.8
		c-0.74-1.28-1.61-1.91-2.6-1.91c-1.7,0-3.08,1.65-4.15,4.94c-1.06,3.29-1.9,7.74-2.5,13.34c-0.6,5.6-1.03,12.08-1.28,19.45
		c-0.25,7.37-0.37,15.13-0.37,23.28v11.69c2.2-7.16,4.07-13.61,5.63-19.35C1058.9,162.85,1060.14,157.5,1061.06,152.54z"/>
	<path class="st43" d="M1171.41,155.2c1.13-6.17,2.02-12,2.66-17.49c0.64-5.49,0.96-10.29,0.96-14.4c0-1.49-0.18-2.66-0.53-3.51
		c-0.36-0.85-0.92-1.28-1.7-1.28c-0.78,0-1.56,1.1-2.34,3.3c-0.78,2.2-1.54,5.17-2.28,8.93c-0.74,3.76-1.42,8.12-2.02,13.07
		c-0.6,4.96-1.15,10.22-1.65,15.79c-0.5,5.56-0.89,11.25-1.17,17.06c-0.28,5.81-0.46,11.41-0.53,16.8
		c1.7-6.24,3.28-12.63,4.73-19.19C1168.98,167.72,1170.27,161.36,1171.41,155.2z"/>
	<polygon class="st43" points="664.85,351.91 663.48,351.91 629.93,427.26 698.68,427.26 	"/>
	<g>
		<path d="M1017.79,95.55c-2.14-4.07-4.92-7.71-8.37-10.91c-3.44-3.2-7.35-6.11-11.71-8.73c-4.36-2.62-8.75-5.04-13.16-7.27
			c-4.42-2.23-8.66-4.39-12.73-6.47c-4.07-2.08-7.56-4.24-10.47-6.47c0.29-0.97,0.65-2.13,1.09-3.49c0.43-1.36,0.87-2.84,1.31-4.44
			c0.44-1.6,0.8-3.2,1.09-4.8s0.44-3.13,0.44-4.58c0-3.1-0.92-5.7-2.76-7.78c-1.84-2.08-4.61-3.13-8.29-3.13
			c-2.04,0-3.98,0.44-5.82,1.31c-1.84,0.87-3.47,2.06-4.87,3.56c-1.41,1.51-2.52,3.3-3.35,5.38c-0.82,2.09-1.24,4.29-1.24,6.62
			c0,4.27,0.85,7.93,2.55,10.98c1.69,3.05,4.34,6.28,7.93,9.67l-14.84,32.44c-4.95,9.89-9.29,17.87-13.02,23.93
			c-3.73,6.06-6.96,10.72-9.67,13.97c-2.72,3.25-5.02,5.43-6.91,6.55c-1.89,1.12-3.47,1.67-4.73,1.67c-3.01,0-5.09-0.92-6.26-2.76
			s-1.75-5.38-1.75-10.62c0-4.17,0.46-8.92,1.38-14.26c0.92-5.33,2.06-10.84,3.42-16.51c1.36-5.67,2.84-11.3,4.44-16.87
			c1.6-5.57,3.08-10.74,4.44-15.49c1.36-4.75,2.5-8.92,3.42-12.51s1.38-6.16,1.38-7.71c0-2.13-0.68-3.66-2.04-4.58
			c-1.36-0.92-3.15-1.38-5.38-1.38c-2.62,0-5.48,0.39-8.58,1.16c-3.1,0.78-6.26,1.62-9.46,2.54c-3.2,0.92-6.38,1.77-9.53,2.55
			c-3.15,0.78-6.09,1.16-8.8,1.16c0-2.23-0.29-4.39-0.87-6.47c-0.58-2.08-1.45-3.93-2.62-5.53c-1.16-1.6-2.62-2.88-4.36-3.85
			s-3.78-1.45-6.11-1.45c-1.75,0-3.42,0.32-5.02,0.94c-1.6,0.63-3.05,1.53-4.36,2.69c-1.31,1.16-2.35,2.62-3.13,4.36
			c-0.77,1.75-1.16,3.73-1.16,5.96c0,2.81,0.51,5.33,1.53,7.56c1.02,2.23,2.4,4.17,4.14,5.82c1.75,1.65,3.78,2.96,6.11,3.93
			s4.75,1.6,7.27,1.89c-0.19,1.16-0.53,2.84-1.02,5.02c-0.49,2.18-1.16,4.66-2.04,7.42s-1.92,5.7-3.13,8.8
			c-1.22,3.1-2.55,6.11-4,9.02l-4.36,9.02c-3.69,7.37-6.96,13.6-9.82,18.69s-5.41,9.24-7.64,12.44c-2.23,3.2-4.2,5.51-5.89,6.91
			c-1.7,1.41-3.28,2.11-4.73,2.11c-2.43,0-4.12-1.89-5.09-5.67c-0.97-3.78-1.45-8.44-1.45-13.97c0-11.06,0.41-21.19,1.24-30.4
			c0.82-9.21,1.7-17.24,2.62-24.08s1.79-12.46,2.62-16.87c0.82-4.41,1.24-7.35,1.24-8.8c0-1.16-0.19-1.94-0.58-2.33
			c-0.39-0.39-1.16-0.58-2.33-0.58c-0.77,0-2.09,0.17-3.93,0.51c-1.84,0.34-3.74,0.87-5.68,1.6c-1.94,0.73-3.71,1.72-5.31,2.98
			c-1.6,1.26-2.5,2.81-2.69,4.66l-1.75,14.11c-0.58-1.94-1.7-4.29-3.35-7.06c-1.65-2.76-3.71-5.38-6.18-7.86
			c-2.47-2.47-5.36-4.58-8.66-6.33c-3.3-1.75-6.88-2.62-10.76-2.62c-6.4,0-12.51,1.67-18.33,5.02c-5.82,3.35-10.96,8.05-15.42,14.11
			c-4.46,6.06-8,13.29-10.62,21.68c-1.87,5.99-3.04,12.44-3.58,19.3c-3.43,6.54-7.24,12.96-11.48,19.25
			c-5,7.42-9.97,14.33-14.91,20.73V46.81c0-2.23-0.22-3.78-0.65-4.66c-0.44-0.87-1.72-1.31-3.85-1.31c-0.49,0-1.45,0.1-2.91,0.29
			s-2.98,0.53-4.58,1.02s-3.11,1.09-4.51,1.82c-1.41,0.73-2.4,1.67-2.98,2.84c-0.68,1.45-1.04,3.83-1.09,7.13
			c-0.05,3.3-0.24,7.13-0.58,11.49c-0.34,4.36-1.02,9.04-2.04,14.04c-1.02,5-2.74,9.97-5.16,14.91l-1.45,3.05
			c-4.95,9.89-9.22,17.96-12.8,24.22c-3.59,6.26-6.67,11.18-9.24,14.77c-2.57,3.59-4.7,6.04-6.4,7.35c-1.7,1.31-3.18,1.96-4.44,1.96
			c-3.98,0-5.97-3.2-5.97-9.6c0-4.95,0.31-10.4,0.95-16.37c0.63-5.96,1.36-12.07,2.18-18.33c0.82-6.26,1.55-12.41,2.18-18.47
			c0.63-6.06,0.95-11.56,0.95-16.51c0-7.86-1.7-14.09-5.09-18.69c-3.4-4.6-8.73-6.91-16-6.91c-4.07,0-8.07,0.97-12,2.91
			c-3.93,1.94-7.73,4.51-11.42,7.71c-3.69,3.2-7.23,6.89-10.62,11.06c-3.4,4.17-6.54,8.53-9.45,13.09
			c0.29-9.41,0.65-16.63,1.09-21.68s0.66-7.42,0.66-7.13c0-2.23-0.32-3.78-0.95-4.66c-0.63-0.87-1.77-1.31-3.42-1.31
			c-0.87,0-2.09,0.05-3.64,0.15c-1.55,0.1-3.15,0.36-4.8,0.8c-1.65,0.44-3.2,1.04-4.66,1.82c-1.45,0.78-2.48,1.84-3.06,3.2
			c-0.29,0.58-0.46,1.43-0.51,2.54c-0.05,1.12-0.07,2.64-0.07,4.58v41.05l-1.16,2.44c-4.07,8.15-8.05,15.15-11.93,21.02
			c-3.88,5.87-7.64,10.64-11.27,14.33s-7.23,6.4-10.76,8.15c-3.54,1.75-7.01,2.62-10.4,2.62c-4.07,0-7.76-0.8-11.06-2.4
			c-3.3-1.6-6.21-3.88-8.73-6.84c-2.52-2.96-4.61-6.49-6.26-10.62c-1.65-4.12-2.81-8.7-3.49-13.75c6.98-4.27,13.62-8.41,19.93-12.44
			c6.3-4.02,11.85-8.09,16.66-12.22c4.8-4.12,8.61-8.34,11.42-12.66c2.81-4.31,4.22-8.95,4.22-13.89c0-5.14-1.77-9.41-5.31-12.8
			c-3.54-3.4-8.65-5.09-15.35-5.09c-6.6,0-12.95,1.7-19.06,5.09c-6.11,3.4-11.56,8.15-16.36,14.26c-4.8,6.11-8.63,13.45-11.49,22.04
			c-2.49,7.47-3.89,15.67-4.22,24.58c-2.26,4.46-4.36,8.54-6.26,12.16c-3.15,6.01-5.92,10.98-8.29,14.91
			c-2.38,3.93-4.49,6.84-6.33,8.73c-1.84,1.89-3.54,2.84-5.09,2.84c-3.01,0-4.51-3.01-4.51-9.02c0-4.95,0.39-10.42,1.16-16.44
			s1.6-12.15,2.48-18.4c0.87-6.26,1.69-12.44,2.47-18.55c0.78-6.11,1.16-11.64,1.16-16.58c0-7.86-1.7-14.09-5.09-18.69
			c-3.4-4.6-8.78-6.91-16.15-6.91c-4.27,0-8.36,0.92-12.29,2.76c-3.93,1.84-7.66,4.36-11.2,7.56c-3.54,3.2-6.89,6.96-10.04,11.27
			c-3.15,4.32-6.09,8.95-8.8,13.89c-0.29-5.04-0.85-9.72-1.67-14.04c-0.82-4.31-2.09-8.07-3.78-11.27c-1.7-3.2-3.98-5.7-6.84-7.49
			c-2.86-1.79-6.47-2.69-10.84-2.69c-3.59,0-7.05,0.87-10.4,2.62c-3.35,1.75-6.52,4.1-9.53,7.05c-3.01,2.96-5.75,6.4-8.22,10.33
			s-4.63,8.07-6.47,12.44c0.19-4.07,0.29-8.15,0.29-12.22s0-8.63,0-13.67c0-2.23-0.29-3.88-0.87-4.95c-0.58-1.07-1.79-1.6-3.63-1.6
			c-0.78,0-1.89,0.05-3.35,0.15s-2.91,0.36-4.36,0.8c-1.45,0.44-2.84,1.04-4.14,1.82c-1.31,0.78-2.21,1.84-2.69,3.2
			c-0.29,0.87-0.51,2.4-0.66,4.58s-0.22,5.6-0.22,10.26c0,2.81,0.02,6.16,0.07,10.04c0.05,3.88,0.07,8.39,0.07,13.53
			c0,5.14,0.03,11.01,0.07,17.6c0.05,6.6,0.07,14.01,0.07,22.26c-0.49,2.33-0.99,4.83-1.53,7.49c-0.53,2.67-1.02,5.26-1.45,7.78
			s-0.8,4.87-1.09,7.05c-0.29,2.18-0.44,4-0.44,5.46c0,3.01,0.63,4.95,1.89,5.82c1.26,0.87,2.62,1.31,4.07,1.31
			c1.16,0,2.67-0.19,4.51-0.58c1.84-0.39,3.64-0.99,5.38-1.82c1.75-0.82,3.27-1.89,4.58-3.2c1.31-1.31,1.96-2.93,1.96-4.87
			c0-11.35,0.12-21.82,0.36-31.42c0.24-9.6,0.51-18.67,0.8-27.2v-1.75c2.13-5.24,4.29-10.16,6.47-14.77
			c2.18-4.6,4.44-8.63,6.77-12.07c2.33-3.44,4.78-6.16,7.35-8.15c2.57-1.99,5.26-2.98,8.07-2.98c2.33,0,4.22,0.8,5.67,2.4
			c1.45,1.6,2.6,3.86,3.42,6.77c0.82,2.91,1.38,6.4,1.67,10.47c0.29,4.07,0.43,8.58,0.43,13.53c0,2.33-0.02,5.12-0.07,8.36
			c-0.05,3.25-0.12,6.64-0.22,10.18c-0.1,3.54-0.19,7.11-0.29,10.69c-0.1,3.59-0.19,6.84-0.29,9.75c-0.49,3.1-0.97,6.16-1.45,9.16
			c-0.49,3.01-0.92,5.82-1.31,8.44c-0.39,2.62-0.71,5-0.95,7.13c-0.24,2.13-0.36,3.83-0.36,5.09c0,2.71,0.56,4.53,1.67,5.45
			c1.11,0.92,2.45,1.38,4,1.38c0.68,0,1.67-0.1,2.98-0.29c1.31-0.19,2.67-0.49,4.07-0.87c1.41-0.39,2.69-0.87,3.85-1.45
			s1.99-1.21,2.48-1.89c0.68-1.07,1.31-3.13,1.89-6.18s1.04-7.2,1.38-12.44c0.34-5.24,0.6-11.66,0.8-19.28
			c0.19-7.61,0.29-16.51,0.29-26.69c2.04-4.66,4.44-9.36,7.2-14.11c2.76-4.75,5.72-9.04,8.87-12.88c3.15-3.83,6.4-6.96,9.75-9.38
			s6.57-3.64,9.67-3.64c3.1,0,5.43,1.09,6.98,3.27c1.55,2.18,2.33,5.07,2.33,8.66c0,4.07-0.39,9.33-1.16,15.78
			c-0.78,6.45-1.65,13.31-2.62,20.59c-0.97,7.27-1.84,14.55-2.62,21.82c-0.78,7.27-1.16,13.82-1.16,19.64
			c0,3.88,0.43,7.05,1.31,9.53c0.87,2.47,2.04,4.44,3.49,5.89c1.45,1.45,3.15,2.47,5.09,3.05c1.94,0.58,3.93,0.87,5.96,0.87
			c3.49,0,6.67-0.87,9.53-2.62s5.89-4.82,9.09-9.24c3.2-4.41,6.81-10.35,10.84-17.82c1.45-2.7,3.02-5.67,4.7-8.89
			c0.44,2.8,1.04,5.55,1.85,8.23c1.79,5.96,4.39,11.2,7.78,15.71c3.39,4.51,7.56,8.07,12.51,10.69c4.95,2.62,10.57,3.93,16.87,3.93
			c4.46,0,9.11-1.07,13.97-3.2c4.85-2.13,9.77-5.53,14.76-10.18c4.99-4.66,10.09-10.67,15.27-18.04c3.6-5.11,7.21-10.97,10.84-17.53
			v14.04c-0.48,2.33-0.99,4.83-1.53,7.49c-0.53,2.67-1.02,5.26-1.45,7.78s-0.8,4.87-1.09,7.05c-0.29,2.18-0.43,4-0.43,5.46
			c0,3.01,0.63,4.95,1.89,5.82c1.26,0.87,2.62,1.31,4.07,1.31c1.16,0,2.67-0.19,4.51-0.58c1.84-0.39,3.63-0.95,5.38-1.67
			c1.75-0.73,3.27-1.65,4.58-2.76c1.31-1.11,1.96-2.4,1.96-3.85c0-11.44,0.12-22.21,0.36-32.29s0.51-19.4,0.8-27.93
			c2.33-4.66,5.07-9.36,8.22-14.11c3.15-4.75,6.42-9.04,9.82-12.88c3.39-3.83,6.76-6.96,10.11-9.38s6.38-3.64,9.09-3.64
			c3.1,0,5.43,1.09,6.98,3.27c1.55,2.18,2.33,5.07,2.33,8.66c0,4.07-0.39,9.33-1.16,15.78c-0.78,6.45-1.65,13.31-2.62,20.59
			c-0.97,7.27-1.84,14.55-2.62,21.82c-0.78,7.27-1.16,13.82-1.16,19.64c0,3.88,0.48,7.05,1.45,9.53c0.97,2.47,2.23,4.44,3.78,5.89
			c1.55,1.45,3.34,2.47,5.38,3.05c2.04,0.58,4.07,0.87,6.11,0.87c3.2,0,6.4-0.85,9.6-2.55c3.2-1.69,6.64-4.73,10.33-9.09
			c3.68-4.36,7.78-10.28,12.29-17.75c4.51-7.47,9.67-17.02,15.49-28.66l2.91-5.96h1.45v62.84c-4.36,5.33-8.44,10.45-12.22,15.35
			c-3.78,4.9-7.1,9.67-9.96,14.33s-5.09,9.16-6.69,13.53c-1.6,4.36-2.4,8.73-2.4,13.09c0,3,0.49,5.7,1.45,8.07
			c0.97,2.38,2.33,4.41,4.07,6.11c1.75,1.7,3.8,2.98,6.18,3.86c2.38,0.87,4.97,1.31,7.78,1.31c4.46,0,8.58-0.87,12.36-2.62
			s7.08-4.58,9.89-8.51s5.02-9.02,6.62-15.27c1.6-6.26,2.4-13.84,2.4-22.76v-32.44c3.01-3.98,6.13-8.15,9.38-12.51
			c3.25-4.36,6.38-8.75,9.38-13.17c2.63-3.87,5.11-7.67,7.49-11.42c0.41,5.99,1.4,11.35,2.99,16.08c2.13,6.35,4.97,11.62,8.51,15.78
			c3.54,4.17,7.59,7.27,12.14,9.31c4.56,2.04,9.26,3.05,14.11,3.05c3.29,0,6.59-0.87,9.89-2.62c3.29-1.75,6.47-4.12,9.53-7.13
			c3.05-3.01,5.98-6.52,8.8-10.55c2.81-4.02,5.38-8.36,7.71-13.02c0.29,4.56,0.82,8.85,1.6,12.87c0.77,4.03,1.89,7.56,3.34,10.62
			s3.28,5.46,5.46,7.2c2.18,1.75,4.87,2.62,8.07,2.62c3,0,6.04-1.19,9.09-3.57c3.06-2.37,6.18-5.79,9.38-10.25
			c3.2-4.46,6.57-9.91,10.11-16.37c3.54-6.45,7.35-13.75,11.42-21.89l2.89-5.98l0.02,0.01l1.45-3.05c1.45-3.01,2.86-6.21,4.22-9.6
			c1.36-3.4,2.57-6.69,3.64-9.89c1.07-3.2,1.91-6.11,2.54-8.73c0.63-2.62,1.04-4.61,1.24-5.96c3.78-0.39,7.52-1.5,11.2-3.35
			c3.68-1.84,7.15-3.8,10.4-5.89c3.25-2.08,6.18-3.95,8.8-5.6c2.62-1.65,4.7-2.47,6.26-2.47l0.87,0.87
			c-0.78,3.01-2.09,6.5-3.93,10.47c-1.84,3.98-3.91,8.27-6.18,12.87c-2.28,4.61-4.68,9.48-7.2,14.62
			c-2.52,5.14-4.8,10.35-6.84,15.64c-2.04,5.29-3.74,10.6-5.09,15.93c-1.36,5.33-2.04,10.47-2.04,15.42
			c0,9.12,1.79,15.86,5.38,20.22c3.59,4.36,8.24,6.55,13.97,6.55c3.39,0,6.79-0.85,10.18-2.55c3.39-1.69,7-4.73,10.84-9.09
			c3.83-4.36,8.02-10.28,12.58-17.75c4.56-7.47,9.75-17.02,15.57-28.66l1.45-3.05l-0.06-0.04l13.15-29.2
			c2.52,2.42,5.48,4.85,8.87,7.27c3.39,2.42,6.86,4.92,10.4,7.49c3.54,2.57,7.03,5.26,10.47,8.07c3.44,2.81,6.52,5.82,9.24,9.02
			c2.71,3.2,4.9,6.6,6.55,10.18c1.65,3.59,2.47,7.47,2.47,11.64c0,4.36-0.61,8.39-1.82,12.07s-2.96,6.86-5.24,9.53
			c-2.28,2.67-5.02,4.75-8.22,6.26c-3.2,1.51-6.74,2.26-10.62,2.26c-7.66,0-13.7-1.91-18.11-5.75c-4.41-3.83-6.62-8.95-6.62-15.35
			c0-3.49,0.68-6.77,2.04-9.82c1.36-3.05,3.18-5.67,5.45-7.86c2.28-2.18,4.9-3.9,7.86-5.16s5.99-1.89,9.09-1.89v-4.22
			c-2.52-0.58-4.95-0.87-7.27-0.87c-3.69,0-7.18,0.68-10.47,2.04c-3.3,1.36-6.23,3.22-8.8,5.6c-2.57,2.38-4.61,5.24-6.11,8.58
			c-1.5,3.35-2.25,6.96-2.25,10.84c0,3.88,0.77,7.64,2.33,11.27c1.55,3.64,3.78,6.89,6.69,9.75c2.91,2.86,6.42,5.14,10.55,6.84
			c4.12,1.7,8.8,2.55,14.04,2.55c7.27,0,13.75-1.41,19.42-4.22c5.67-2.81,10.42-6.57,14.26-11.28c3.83-4.7,6.74-10.08,8.73-16.15
			c1.99-6.06,2.98-12.39,2.98-18.98C1020.99,104.22,1019.92,99.62,1017.79,95.55z M469.36,99.18c0-8.73,0.78-16.15,2.33-22.26
			c1.55-6.11,3.49-11.13,5.82-15.06c2.33-3.93,4.9-6.79,7.71-8.58c2.81-1.79,5.48-2.69,8-2.69c3.01,0,5.55,1.11,7.64,3.35
			c2.08,2.23,3.13,5.29,3.13,9.16c0,3.98-1.19,7.93-3.56,11.85c-2.38,3.93-5.31,7.64-8.8,11.13c-3.49,3.49-7.25,6.67-11.28,9.53
			c-4.02,2.86-7.69,5.17-10.98,6.91V99.18z M671.86,192.72c0,7.47-0.41,13.38-1.24,17.75s-1.87,7.66-3.13,9.89
			c-1.26,2.23-2.69,3.66-4.29,4.29c-1.6,0.63-3.18,0.95-4.73,0.95c-3,0-5.33-1.14-6.98-3.42c-1.65-2.28-2.47-4.92-2.47-7.93
			c0-3.2,0.58-6.5,1.75-9.89c1.16-3.4,2.76-6.91,4.8-10.55c2.04-3.64,4.44-7.37,7.2-11.2c2.76-3.83,5.79-7.78,9.09-11.85V192.72z
			 M790.34,109.8c-1.89,7.18-4.31,13.26-7.27,18.26c-2.96,5-6.21,8.83-9.74,11.49c-3.55,2.67-6.96,4-10.26,4
			c-7.56,0-13.62-3.8-18.18-11.42c-4.56-7.61-6.84-18.69-6.84-33.24c0-7.27,0.77-13.94,2.33-20c1.55-6.06,3.66-11.25,6.33-15.57
			c2.67-4.31,5.82-7.66,9.46-10.04c3.63-2.37,7.54-3.56,11.71-3.56c3.39,0,6.62,1.02,9.67,3.05c3.06,2.04,5.75,4.73,8.07,8.07
			c2.33,3.35,4.17,7.18,5.53,11.49c1.36,4.32,2.04,8.71,2.04,13.17C793.18,94.53,792.24,102.62,790.34,109.8z M856.53,48.19
			c-0.92-0.24-1.82-0.63-2.69-1.16c-0.87-0.53-1.6-1.21-2.18-2.04c-0.58-0.82-0.87-1.82-0.87-2.98c0-0.78,0.29-1.45,0.87-2.04
			c0.58-0.58,1.31-0.87,2.18-0.87c1.65,0,2.91,0.9,3.78,2.69c0.87,1.8,1.31,4.05,1.31,6.77C858.25,48.56,857.45,48.44,856.53,48.19z
			 M958.22,45.21c-0.53,1.94-1.28,3.93-2.25,5.96c-2.23-2.04-3.78-4.12-4.66-6.26c-0.87-2.13-1.31-4.07-1.31-5.82
			c0-1.55,0.41-2.79,1.24-3.71c0.82-0.92,1.92-1.38,3.27-1.38c1.36,0,2.45,0.51,3.27,1.53c0.82,1.02,1.24,2.31,1.24,3.86
			C959.02,41.33,958.75,43.27,958.22,45.21z"/>
	</g>
	<g>
		<path d="M1195.64,219.72l-1.06,2.23c-2.27,4.54-4.46,8.75-6.59,12.65c-2.13,3.9-4.15,7.3-6.06,10.21
			c-1.91,2.91-3.7,5.19-5.37,6.86c-1.67,1.67-3.14,2.5-4.41,2.5s-2.41-0.62-3.4-1.86c-0.99-1.24-1.86-3.46-2.6-6.64
			c-0.75-3.19-1.38-7.56-1.91-13.13c-0.53-5.56-1.01-12.7-1.44-21.42c1.42-4.61,2.87-9.55,4.36-14.83s2.94-10.67,4.36-16.16
			c1.42-5.49,2.76-11.02,4.04-16.58s2.37-10.93,3.3-16.11c0.92-5.17,1.66-10.03,2.23-14.56c0.57-4.53,0.85-8.57,0.85-12.12
			c0-4.53-0.73-7.67-2.18-9.41c-1.45-1.74-3.24-2.61-5.37-2.61c-3.55,0-6.93,1.83-10.15,5.48c-3.23,3.65-6.06,9.35-8.5,17.11
			c-2.45,7.76-4.38,17.68-5.79,29.77c-1.42,12.08-2.13,26.56-2.13,43.43c0,6.44,0.11,12.3,0.33,17.62
			c-2.94,5.87-5.82,10.93-8.62,15.18c-2.84,4.29-5.58,7.78-8.24,10.47c-2.66,2.69-5.28,4.68-7.87,5.95
			c-2.59,1.28-5.12,1.91-7.6,1.91c-2.98,0-5.67-0.58-8.08-1.75c-2.41-1.17-4.54-2.84-6.38-5c-1.84-2.16-3.37-4.75-4.57-7.76
			c-1.21-3.01-2.06-6.36-2.55-10.05c5.1-3.12,9.95-6.15,14.56-9.09c4.61-2.94,8.67-5.92,12.17-8.93c3.51-3.01,6.29-6.1,8.35-9.25
			c2.05-3.15,3.08-6.54,3.08-10.15c0-3.76-1.29-6.87-3.88-9.35c-2.59-2.48-6.33-3.72-11.22-3.72c-4.82,0-9.46,1.24-13.92,3.72
			c-4.46,2.48-8.45,5.95-11.96,10.42c-3.51,4.46-6.31,9.83-8.4,16.1c-1.79,5.37-2.77,11.29-3.03,17.68
			c-1.44,2.83-2.81,5.48-4.1,7.89c-2.23,4.18-4.31,7.71-6.22,10.58c-1.91,2.87-3.7,5.03-5.37,6.49c-1.67,1.45-3.31,2.18-4.94,2.18
			c-0.92,0-1.75-0.23-2.5-0.69c-0.74-0.46-1.38-1.35-1.91-2.66c-0.53-1.31-0.99-3.17-1.38-5.58c-0.39-2.41-0.71-5.53-0.96-9.35
			s-0.44-8.5-0.58-14.03c-0.14-5.53-0.25-12.08-0.32-19.67c2.98-8.65,5.69-16.99,8.13-25.03c2.45-8.04,4.52-15.63,6.22-22.75
			c1.7-7.12,3.01-13.71,3.93-19.77c0.92-6.06,1.38-11.43,1.38-16.11c0-2.27-0.19-4.13-0.58-5.58c-0.39-1.45-0.96-2.61-1.7-3.46
			c-0.75-0.85-1.67-1.43-2.76-1.75c-1.1-0.32-2.32-0.48-3.67-0.48c-3.83,0-7.33,1.79-10.52,5.37c-3.19,3.58-5.94,8.84-8.24,15.79
			c-2.3,6.95-4.09,15.56-5.37,25.83c-1.28,10.28-1.95,22.11-2.02,35.51c-1.99-2.98-4.59-5.49-7.81-7.55
			c-3.22-2.05-7.14-3.08-11.75-3.08c-4.04,0-7.81,0.75-11.32,2.23c-3.51,1.49-6.68,3.51-9.51,6.06c-2.84,2.55-5.35,5.55-7.55,8.98
			c-2.2,3.44-4.02,7.12-5.48,11.06c-1.45,3.93-2.57,7.99-3.35,12.17c-0.78,4.18-1.17,8.29-1.17,12.33c0,4.61,0.5,8.97,1.49,13.07
			c0.99,4.11,2.51,7.74,4.57,10.9c2.05,3.15,4.66,5.65,7.81,7.5c3.15,1.84,6.89,2.76,11.22,2.76c3.19,0,6.31-0.78,9.35-2.34
			c3.05-1.56,5.97-3.77,8.77-6.64c2.8-2.87,5.51-6.32,8.13-10.36c2.62-4.04,5.17-8.54,7.65-13.5c0.43,5.81,1.03,10.79,1.81,14.94
			c0.78,4.15,1.81,7.55,3.08,10.21c1.28,2.66,2.82,4.61,4.62,5.85c1.81,1.24,3.95,1.86,6.43,1.86c2.55,0,5-0.66,7.34-1.97
			s4.8-3.6,7.39-6.86c2.59-3.26,5.44-7.6,8.56-13.02c1.15-2,2.37-4.2,3.65-6.59c0.33,2.14,0.78,4.23,1.4,6.27
			c1.31,4.36,3.2,8.19,5.69,11.48c2.48,3.3,5.53,5.9,9.14,7.81s7.72,2.87,12.33,2.87c3.26,0,6.66-0.78,10.21-2.34
			c3.54-1.56,7.14-4.04,10.79-7.44c3.65-3.4,7.37-7.79,11.16-13.18c2.52-3.58,5.05-7.7,7.59-12.25c0.06,0.69,0.11,1.38,0.17,2.05
			c0.74,8.08,1.88,14.58,3.4,19.51c1.52,4.93,3.44,8.44,5.74,10.53c2.3,2.09,5.05,3.14,8.24,3.14c2.41,0,4.76-0.8,7.07-2.39
			c2.3-1.59,4.73-4.11,7.28-7.55c2.55-3.44,5.3-7.83,8.24-13.18c2.94-5.35,6.29-11.78,10.04-19.3l1.06-2.23L1195.64,219.72z
			 M1163.33,176.67c0.28-5.81,0.67-11.5,1.17-17.06c0.49-5.56,1.05-10.83,1.65-15.79c0.6-4.96,1.28-9.32,2.02-13.07
			c0.75-3.76,1.5-6.73,2.28-8.93c0.78-2.2,1.56-3.3,2.34-3.3c0.78,0,1.35,0.43,1.7,1.28c0.35,0.85,0.53,2.02,0.53,3.51
			c0,4.11-0.32,8.91-0.96,14.4c-0.64,5.49-1.52,11.32-2.66,17.49c-1.13,6.17-2.43,12.53-3.88,19.08
			c-1.45,6.56-3.03,12.95-4.73,19.19C1162.86,188.08,1163.04,182.48,1163.33,176.67z M1051.71,176.24c0-8.15,0.12-15.91,0.37-23.28
			c0.25-7.37,0.67-13.85,1.28-19.45c0.6-5.6,1.43-10.05,2.5-13.34c1.06-3.3,2.45-4.94,4.15-4.94c0.99,0,1.86,0.64,2.6,1.91
			c0.75,1.28,1.12,3.54,1.12,6.8c0,4.89-0.21,9.64-0.64,14.24c-0.43,4.61-1.1,9.39-2.02,14.35c-0.92,4.96-2.16,10.31-3.72,16.05
			c-1.56,5.74-3.44,12.19-5.63,19.35V176.24z M1029.91,238.7c-2.2,4-4.36,7.26-6.48,9.78c-2.13,2.52-4.27,4.34-6.43,5.47
			c-2.16,1.13-4.38,1.7-6.64,1.7c-2.34,0-4.4-0.81-6.17-2.44c-1.77-1.63-3.28-3.83-4.52-6.59c-1.24-2.76-2.16-5.94-2.76-9.51
			c-0.6-3.58-0.9-7.32-0.9-11.22c0-4.75,0.46-9.5,1.38-14.24c0.92-4.75,2.34-9.02,4.25-12.81c1.91-3.79,4.32-6.88,7.23-9.25
			c2.9-2.37,6.31-3.56,10.21-3.56c3.76,0,7.21,1.31,10.36,3.93c3.15,2.62,5.51,6.24,7.07,10.84c0,4.4,0.04,8.52,0.11,12.39
			c0.07,3.86,0.17,7.5,0.32,10.9C1034.45,229.82,1032.11,234.69,1029.91,238.7z M1093.8,223.23c0-6.38,0.57-11.8,1.7-16.27
			c1.13-4.46,2.55-8.13,4.25-11c1.7-2.87,3.58-4.96,5.63-6.27c2.05-1.31,4-1.97,5.85-1.97c2.2,0,4.06,0.81,5.58,2.44
			c1.52,1.63,2.28,3.87,2.28,6.7c0,2.91-0.87,5.79-2.6,8.66c-1.74,2.87-3.88,5.58-6.43,8.13c-2.55,2.55-5.3,4.87-8.24,6.96
			c-2.94,2.09-5.62,3.77-8.03,5.05V223.23z"/>
	</g>
	<path d="M569.97,351.08c0-28.87-23.92-50.87-57.2-50.87h-61.6c-3.03,0-5.23,2.48-5.23,5.22v182.05c0,2.75,2.2,5.22,5.23,5.22h64.62
		c34.65,0,59.95-22.27,59.95-53.07c0-25.3-19.8-38.78-34.37-44.82C554.3,387.38,569.97,372.26,569.97,351.08z M474,326.06h37.13
		c17.6,0,28.32,11.55,28.32,28.32c0,16.5-10.72,29.43-28.32,29.43H474V326.06z M545.22,437.43c0,17.05-12.92,29.98-29.7,29.98h-41.8
		v-58.85h37.67C529.27,408.56,545.22,420.66,545.22,437.43z"/>
	<g>
		<path d="M754.5,485.56l-83.87-185.07c-0.82-1.65-3.3-3.02-4.68-3.02h-2.75c-1.38,0-3.85,1.37-4.68,3.02L574.1,485.56
			c-1.65,3.58,0.55,7.15,4.68,7.15h17.32c3.3,0,5.5-2.2,6.32-4.12c5.5-12.65,11.28-25.03,16.77-37.67h89.93l17.05,37.67
			c1.1,2.48,3.03,4.12,6.32,4.12h17.32C753.95,492.7,756.15,489.13,754.5,485.56z M629.93,427.26l33.55-75.35h1.37l33.83,75.35
			H629.93z"/>
	</g>
	<path d="M848.83,495.46c39.87,0,68.2-18.15,68.2-18.15c1.1-0.83,2.2-3.03,2.2-4.4c0-22-0.28-44.55-0.28-66.55
		c0-2.75-2.2-5.23-4.95-5.23h-50.05c-3.02,0-5.22,2.2-5.22,5.23v15.95c0,2.75,2.2,4.95,5.22,4.95h26.95v30.8
		c-2.75,1.1-18.43,9.35-41.25,9.35c-39.05,0-69.02-33-69.02-71.22c0-38.5,29.98-71.5,69.02-71.5c16.77,0,33.83,7.43,46.75,18.7
		c2.75,2.48,4.95,2.75,7.15,0.27c4.12-4.4,8.25-8.52,12.38-12.92c2.2-2.2,1.92-5.5-0.28-7.7c-18.7-15.95-40.42-25.57-66.82-25.57
		c-54.72,0-99,44.27-99,99.27S794.1,495.46,848.83,495.46z"/>
	<path d="M1060.57,326.06c3.03,0,5.23-2.48,5.23-5.22v-15.4c0-2.75-2.2-5.22-5.23-5.22h-110c-3.02,0-5.22,2.48-5.22,5.22v182.05
		c0,2.75,2.2,5.22,5.22,5.22h110c3.03,0,5.23-2.48,5.23-5.22v-15.12c0-2.75-2.2-5.23-5.23-5.23h-86.9v-59.12h73.42
		c2.75,0,5.22-2.2,5.22-5.23v-15.4c0-2.75-2.48-5.23-5.22-5.23h-73.42v-56.1H1060.57z"/>
	<path d="M1140.88,381.88c-22.83-9.35-34.92-18.97-34.92-34.65c0-10.17,7.97-24.75,31.07-24.75c15.95,0,35.2,12.65,37.12,13.75
		c3.85,2.48,7.42,0.83,9.62-2.75c2.2-3.3,4.68-7.15,6.88-10.45c2.75-4.12,0.55-7.97-1.65-9.35c-2.75-1.93-23.37-16.22-50.87-16.22
		c-43.72,0-60.22,29.42-60.22,50.87c0,31.9,22,46.47,50.05,58.3c27.22,11.28,41.52,21.73,41.52,38.23
		c0,14.03-12.1,25.58-31.07,25.58c-21.17,0-42.35-17.6-44-18.97c-3.03-2.48-6.88-1.38-9.35,2.2c-2.48,3.58-4.68,7.7-7.15,11.28
		c-2.75,4.68-0.82,6.6,1.65,8.8c4.4,4.13,25.57,21.73,59.12,21.73c35.75,0,61.32-23.38,61.32-51.98
		C1200,409.93,1172.77,394.81,1140.88,381.88z"/>
	<path d="M327.79,513.64c-10.93,0-19.8,8.86-19.8,19.8s8.86,19.8,19.8,19.8s19.8-8.86,19.8-19.8S338.73,513.64,327.79,513.64z"/>
	<path d="M244.15,123.88c17.98-33.58,24.84-69.9,15.27-112.93c-2.25-3.81-4.61-4.98-7.57-4.98c-1.19,0-2.48,0.19-3.9,0.47
		c-11.16,2.22-20.37,6.84-30.34,10.51c-14.07,5.52-32.59,3.32-47.4,7.57c-25.49,2.42-52.22,2.86-74.57,10.64
		c-49.86,17.35-73.06,51.94-67.4,104.67c0.47,4.36,0.74,8.68,1.1,13.01c-0.29,9.63,4.38,19.55,9.21,29.52
		c1.86,3.84,4.27,6.36,8.62,6.36c0.3,0,0.6-0.01,0.92-0.04c0.32-0.61,16.95-24.76,27.55-36.38c1.58-1.73,7.35-6.62,9.2-8.05
		c45.25-34.93,75.81-48.44,89.8-53.1c-50.33,27.3-117.7,79.44-117.68,105.92c10.55,5.37,20.48,6.92,29.77,6.92
		c7.11,0,13.86-0.91,20.23-1.69C169.94,194.51,218.49,171.82,244.15,123.88z"/>
	<path d="M1188.54,521.98h-797.3c-6.33,0-11.46,5.13-11.46,11.46c0,6.33,5.13,11.46,11.46,11.46h797.3
		c6.33,0,11.46-5.13,11.46-11.46C1200,527.11,1194.87,521.98,1188.54,521.98z"/>
	<path d="M58.09,213.67C51.5,249.9,123.81,345.7,180.72,401.33c-16.54-11.45-51.86-41.04-100.45-105.27
		c-1.99-2.63-8.08-11.42-9.64-14.36c-10.53-19.75-25.59-58.84-25.83-59.79c-1.55-0.58-2.96-0.85-4.26-0.85
		c-3.86,0-6.73,2.38-9.38,6.04c-8.59,11.88-16.96,23.77-18.98,37.05c-1.54,5.8-2.95,11.61-4.63,17.41
		c-20.26,70.11,0.52,125.86,59.3,167.71c26.35,18.76,60.06,29.06,91.71,41.62c17.67,11.2,41.67,14.9,58.09,27.57
		c11.71,8.64,22.21,18.31,35.78,25.4c2.84,1.49,5.31,2.5,7.68,2.5c2.63,0,5.16-1.25,7.96-4.5c22.79-55.41,23.12-107.6,8.71-160.09
		c-20.58-74.92-76.38-123.59-154.12-157.11c-14.01-6.04-29.43-13.02-47.66-13.02C69.62,211.64,64,212.25,58.09,213.67z"/>
	<path d="M681.9,0c-7.66,0-13.88,6.21-13.88,13.88s6.21,13.88,13.88,13.88s13.88-6.21,13.88-13.88S689.56,0,681.9,0z"/>
</g>
</svg>
